M48
; DRILL file {KiCad 9.0.4} date 2026-01-20T15:48:25-0800
; FORMAT={-:-/ absolute / metric / decimal}
; #@! TF.CreationDate,2026-01-20T15:48:25-08:00
; #@! TF.GenerationSoftware,Kicad,Pcbnew,9.0.4
; #@! TF.FileFunction,Plated,1,2,PTH
FMAT,2
METRIC
; #@! TA.AperFunction,Plated,PTH,ViaDrill
T1C0.500
; #@! TA.AperFunction,Plated,PTH,ComponentDrill
T2C1.000
%
G90
G05
T1
X81.5Y-61.0
X81.5Y-62.25
X83.0Y-55.5
X83.0Y-57.0
X83.0Y-58.5
X83.0Y-59.765
X83.0Y-61.0
X83.0Y-62.25
X84.5Y-55.5
X84.5Y-57.0
X84.5Y-58.5
X86.75Y-74.5
X99.5Y-60.5
X100.75Y-60.5
X101.75Y-56.75
X101.75Y-58.0
X101.75Y-59.25
X101.75Y-60.515
X103.5Y-56.75
X103.5Y-58.0
X103.5Y-59.25
X103.5Y-60.5
X105.0Y-56.75
X105.0Y-58.0
X105.0Y-59.25
X105.0Y-60.5
X106.5Y-56.75
X106.5Y-58.0
X106.5Y-59.25
X106.5Y-60.5
X108.0Y-56.75
X108.0Y-58.0
X108.0Y-59.25
X108.0Y-60.5
T2
X79.75Y-49.75
X79.75Y-57.225
X79.75Y-59.765
X79.75Y-66.0
X79.75Y-70.0
X83.75Y-49.75
X84.0Y-74.25
X87.5Y-44.5
X95.0Y-44.5
X95.885Y-69.215
X96.52Y-74.93
X99.06Y-74.93
X101.6Y-74.93
X108.585Y-74.93
X114.25Y-74.75
X119.38Y-48.25
X119.38Y-53.975
X119.38Y-62.25
X119.38Y-64.79
X119.38Y-69.4
X119.38Y-74.75
M30
