%TF.GenerationSoftware,KiCad,Pcbnew,9.0.4*%
%TF.CreationDate,2026-01-20T15:52:17-08:00*%
%TF.ProjectId,FrontLight,46726f6e-744c-4696-9768-742e6b696361,rev?*%
%TF.SameCoordinates,Original*%
%TF.FileFunction,Soldermask,Top*%
%TF.FilePolarity,Negative*%
%FSLAX46Y46*%
G04 Gerber Fmt 4.6, Leading zero omitted, Abs format (unit mm)*
G04 Created by KiCad (PCBNEW 9.0.4) date 2026-01-20 15:52:17*
%MOMM*%
%LPD*%
G01*
G04 APERTURE LIST*
G04 Aperture macros list*
%AMRoundRect*
0 Rectangle with rounded corners*
0 $1 Rounding radius*
0 $2 $3 $4 $5 $6 $7 $8 $9 X,Y pos of 4 corners*
0 Add a 4 corners polygon primitive as box body*
4,1,4,$2,$3,$4,$5,$6,$7,$8,$9,$2,$3,0*
0 Add four circle primitives for the rounded corners*
1,1,$1+$1,$2,$3*
1,1,$1+$1,$4,$5*
1,1,$1+$1,$6,$7*
1,1,$1+$1,$8,$9*
0 Add four rect primitives between the rounded corners*
20,1,$1+$1,$2,$3,$4,$5,0*
20,1,$1+$1,$4,$5,$6,$7,0*
20,1,$1+$1,$6,$7,$8,$9,0*
20,1,$1+$1,$8,$9,$2,$3,0*%
G04 Aperture macros list end*
%ADD10RoundRect,0.250000X0.350000X0.450000X-0.350000X0.450000X-0.350000X-0.450000X0.350000X-0.450000X0*%
%ADD11R,1.700000X1.700000*%
%ADD12RoundRect,0.250000X-0.412500X-1.100000X0.412500X-1.100000X0.412500X1.100000X-0.412500X1.100000X0*%
%ADD13C,1.700000*%
%ADD14R,0.558800X1.003300*%
%ADD15RoundRect,0.250000X-0.350000X-0.450000X0.350000X-0.450000X0.350000X0.450000X-0.350000X0.450000X0*%
%ADD16RoundRect,0.375000X0.625000X0.375000X-0.625000X0.375000X-0.625000X-0.375000X0.625000X-0.375000X0*%
%ADD17RoundRect,0.500000X0.500000X1.400000X-0.500000X1.400000X-0.500000X-1.400000X0.500000X-1.400000X0*%
%ADD18RoundRect,0.250000X-0.475000X0.337500X-0.475000X-0.337500X0.475000X-0.337500X0.475000X0.337500X0*%
%ADD19R,2.900000X5.400000*%
%ADD20RoundRect,0.250000X-1.100000X0.412500X-1.100000X-0.412500X1.100000X-0.412500X1.100000X0.412500X0*%
%ADD21RoundRect,0.250000X0.412500X1.100000X-0.412500X1.100000X-0.412500X-1.100000X0.412500X-1.100000X0*%
%ADD22RoundRect,0.250000X0.625000X-0.400000X0.625000X0.400000X-0.625000X0.400000X-0.625000X-0.400000X0*%
G04 APERTURE END LIST*
D10*
%TO.C,R5*%
X91170000Y-74930000D03*
X89170000Y-74930000D03*
%TD*%
D11*
%TO.C,J_LED+1*%
X119380000Y-48250000D03*
%TD*%
%TO.C,J_3.3V1*%
X84000000Y-74250000D03*
%TD*%
D12*
%TO.C,C1*%
X96437500Y-58250000D03*
X99562500Y-58250000D03*
%TD*%
D11*
%TO.C,J_LED_DIM1*%
X96520000Y-74930000D03*
D13*
X99060000Y-74930000D03*
X101600000Y-74930000D03*
%TD*%
D14*
%TO.C,U1*%
X98900002Y-61044900D03*
X97950001Y-61044900D03*
X97000000Y-61044900D03*
X97000000Y-63750000D03*
X97950001Y-63750000D03*
X98900002Y-63750000D03*
%TD*%
D11*
%TO.C,J1*%
X79750000Y-57225000D03*
D13*
X79750000Y-59765000D03*
%TD*%
D11*
%TO.C,J_LED-1*%
X119380000Y-74750000D03*
%TD*%
D15*
%TO.C,R1*%
X96790000Y-66040000D03*
X98790000Y-66040000D03*
%TD*%
D16*
%TO.C,U2*%
X91415000Y-65800000D03*
X91415000Y-63500000D03*
D17*
X85115000Y-63500000D03*
D16*
X91415000Y-61200000D03*
%TD*%
D18*
%TO.C,C3*%
X101000000Y-63500000D03*
X101000000Y-65575000D03*
%TD*%
D19*
%TO.C,L1*%
X99290000Y-49530000D03*
X108990000Y-49530000D03*
%TD*%
D11*
%TO.C,J_GND3*%
X114250000Y-74750000D03*
%TD*%
%TO.C,J_VCC1*%
X83750000Y-49750000D03*
%TD*%
%TO.C,J_DIM1*%
X108585000Y-74930000D03*
%TD*%
D20*
%TO.C,C4*%
X114390000Y-62225000D03*
X114390000Y-65350000D03*
%TD*%
%TO.C,C5*%
X110640000Y-62225000D03*
X110640000Y-65350000D03*
%TD*%
D11*
%TO.C,J2*%
X119380000Y-64790000D03*
D13*
X119380000Y-62250000D03*
%TD*%
D11*
%TO.C,J_GND1*%
X79750000Y-66000000D03*
%TD*%
D21*
%TO.C,C2*%
X90462500Y-57785000D03*
X87337500Y-57785000D03*
%TD*%
D22*
%TO.C,R2*%
X107140000Y-65337500D03*
X107140000Y-62237500D03*
%TD*%
D11*
%TO.C,J_GND4*%
X87500000Y-44500000D03*
%TD*%
%TO.C,J_LED-2*%
X119380000Y-69400000D03*
%TD*%
%TO.C,J_SW1*%
X95000000Y-44500000D03*
%TD*%
D15*
%TO.C,R4*%
X89170000Y-72390000D03*
X91170000Y-72390000D03*
%TD*%
D11*
%TO.C,J_FB1*%
X95885000Y-69215000D03*
%TD*%
%TO.C,J+LED+2*%
X119380000Y-53975000D03*
%TD*%
D21*
%TO.C,C6*%
X90462500Y-69215000D03*
X87337500Y-69215000D03*
%TD*%
D11*
%TO.C,J_VCC2*%
X79750000Y-49750000D03*
%TD*%
D22*
%TO.C,R3*%
X104140000Y-65387500D03*
X104140000Y-62287500D03*
%TD*%
D11*
%TO.C,J_GND2*%
X79750000Y-70000000D03*
%TD*%
M02*
