%TF.GenerationSoftware,KiCad,Pcbnew,9.0.4*%
%TF.CreationDate,2026-01-20T15:48:25-08:00*%
%TF.ProjectId,FrontLight,46726f6e-744c-4696-9768-742e6b696361,rev?*%
%TF.SameCoordinates,Original*%
%TF.FileFunction,Drillmap*%
%TF.FilePolarity,Positive*%
%FSLAX45Y45*%
G04 Gerber Fmt 4.5, Leading zero omitted, Abs format (unit mm)*
G04 Created by KiCad (PCBNEW 9.0.4) date 2026-01-20 15:48:25*
%MOMM*%
%LPD*%
G01*
G04 APERTURE LIST*
%ADD10C,0.050000*%
%ADD11C,0.200000*%
%ADD12C,0.100000*%
G04 APERTURE END LIST*
D10*
X12192000Y-7747000D02*
X12192000Y-4191000D01*
X12192000Y-7810500D02*
X12192000Y-7747000D01*
X7683500Y-7810500D02*
X12192000Y-7810500D01*
X7683500Y-4191000D02*
X7683500Y-7810500D01*
X12192000Y-4191000D02*
X7683500Y-4191000D01*
D11*
D12*
X8125000Y-6075000D02*
X8175000Y-6125000D01*
X8175000Y-6075000D02*
X8125000Y-6125000D01*
X8125000Y-6200000D02*
X8175000Y-6250000D01*
X8175000Y-6200000D02*
X8125000Y-6250000D01*
X8275000Y-5525000D02*
X8325000Y-5575000D01*
X8325000Y-5525000D02*
X8275000Y-5575000D01*
X8275000Y-5675000D02*
X8325000Y-5725000D01*
X8325000Y-5675000D02*
X8275000Y-5725000D01*
X8275000Y-5825000D02*
X8325000Y-5875000D01*
X8325000Y-5825000D02*
X8275000Y-5875000D01*
X8275000Y-5951500D02*
X8325000Y-6001500D01*
X8325000Y-5951500D02*
X8275000Y-6001500D01*
X8275000Y-6075000D02*
X8325000Y-6125000D01*
X8325000Y-6075000D02*
X8275000Y-6125000D01*
X8275000Y-6200000D02*
X8325000Y-6250000D01*
X8325000Y-6200000D02*
X8275000Y-6250000D01*
X8425000Y-5525000D02*
X8475000Y-5575000D01*
X8475000Y-5525000D02*
X8425000Y-5575000D01*
X8425000Y-5675000D02*
X8475000Y-5725000D01*
X8475000Y-5675000D02*
X8425000Y-5725000D01*
X8425000Y-5825000D02*
X8475000Y-5875000D01*
X8475000Y-5825000D02*
X8425000Y-5875000D01*
X8650000Y-7425000D02*
X8700000Y-7475000D01*
X8700000Y-7425000D02*
X8650000Y-7475000D01*
X9925000Y-6025000D02*
X9975000Y-6075000D01*
X9975000Y-6025000D02*
X9925000Y-6075000D01*
X10050000Y-6025000D02*
X10100000Y-6075000D01*
X10100000Y-6025000D02*
X10050000Y-6075000D01*
X10150000Y-5650000D02*
X10200000Y-5700000D01*
X10200000Y-5650000D02*
X10150000Y-5700000D01*
X10150000Y-5775000D02*
X10200000Y-5825000D01*
X10200000Y-5775000D02*
X10150000Y-5825000D01*
X10150000Y-5900000D02*
X10200000Y-5950000D01*
X10200000Y-5900000D02*
X10150000Y-5950000D01*
X10150000Y-6026500D02*
X10200000Y-6076500D01*
X10200000Y-6026500D02*
X10150000Y-6076500D01*
X10325000Y-5650000D02*
X10375000Y-5700000D01*
X10375000Y-5650000D02*
X10325000Y-5700000D01*
X10325000Y-5775000D02*
X10375000Y-5825000D01*
X10375000Y-5775000D02*
X10325000Y-5825000D01*
X10325000Y-5900000D02*
X10375000Y-5950000D01*
X10375000Y-5900000D02*
X10325000Y-5950000D01*
X10325000Y-6025000D02*
X10375000Y-6075000D01*
X10375000Y-6025000D02*
X10325000Y-6075000D01*
X10475000Y-5650000D02*
X10525000Y-5700000D01*
X10525000Y-5650000D02*
X10475000Y-5700000D01*
X10475000Y-5775000D02*
X10525000Y-5825000D01*
X10525000Y-5775000D02*
X10475000Y-5825000D01*
X10475000Y-5900000D02*
X10525000Y-5950000D01*
X10525000Y-5900000D02*
X10475000Y-5950000D01*
X10475000Y-6025000D02*
X10525000Y-6075000D01*
X10525000Y-6025000D02*
X10475000Y-6075000D01*
X10625000Y-5650000D02*
X10675000Y-5700000D01*
X10675000Y-5650000D02*
X10625000Y-5700000D01*
X10625000Y-5775000D02*
X10675000Y-5825000D01*
X10675000Y-5775000D02*
X10625000Y-5825000D01*
X10625000Y-5900000D02*
X10675000Y-5950000D01*
X10675000Y-5900000D02*
X10625000Y-5950000D01*
X10625000Y-6025000D02*
X10675000Y-6075000D01*
X10675000Y-6025000D02*
X10625000Y-6075000D01*
X10775000Y-5650000D02*
X10825000Y-5700000D01*
X10825000Y-5650000D02*
X10775000Y-5700000D01*
X10775000Y-5775000D02*
X10825000Y-5825000D01*
X10825000Y-5775000D02*
X10775000Y-5825000D01*
X10775000Y-5900000D02*
X10825000Y-5950000D01*
X10825000Y-5900000D02*
X10775000Y-5950000D01*
X10775000Y-6025000D02*
X10825000Y-6075000D01*
X10825000Y-6025000D02*
X10775000Y-6075000D01*
X8025000Y-4975000D02*
G75*
G02*
X7925000Y-4975000I-50000J0D01*
G01*
X7925000Y-4975000D02*
G75*
G02*
X8025000Y-4975000I50000J0D01*
G01*
X8025000Y-5722500D02*
G75*
G02*
X7925000Y-5722500I-50000J0D01*
G01*
X7925000Y-5722500D02*
G75*
G02*
X8025000Y-5722500I50000J0D01*
G01*
X8025000Y-5976500D02*
G75*
G02*
X7925000Y-5976500I-50000J0D01*
G01*
X7925000Y-5976500D02*
G75*
G02*
X8025000Y-5976500I50000J0D01*
G01*
X8025000Y-6600000D02*
G75*
G02*
X7925000Y-6600000I-50000J0D01*
G01*
X7925000Y-6600000D02*
G75*
G02*
X8025000Y-6600000I50000J0D01*
G01*
X8025000Y-7000000D02*
G75*
G02*
X7925000Y-7000000I-50000J0D01*
G01*
X7925000Y-7000000D02*
G75*
G02*
X8025000Y-7000000I50000J0D01*
G01*
X8425000Y-4975000D02*
G75*
G02*
X8325000Y-4975000I-50000J0D01*
G01*
X8325000Y-4975000D02*
G75*
G02*
X8425000Y-4975000I50000J0D01*
G01*
X8450000Y-7425000D02*
G75*
G02*
X8350000Y-7425000I-50000J0D01*
G01*
X8350000Y-7425000D02*
G75*
G02*
X8450000Y-7425000I50000J0D01*
G01*
X8800000Y-4450000D02*
G75*
G02*
X8700000Y-4450000I-50000J0D01*
G01*
X8700000Y-4450000D02*
G75*
G02*
X8800000Y-4450000I50000J0D01*
G01*
X9550000Y-4450000D02*
G75*
G02*
X9450000Y-4450000I-50000J0D01*
G01*
X9450000Y-4450000D02*
G75*
G02*
X9550000Y-4450000I50000J0D01*
G01*
X9638500Y-6921500D02*
G75*
G02*
X9538500Y-6921500I-50000J0D01*
G01*
X9538500Y-6921500D02*
G75*
G02*
X9638500Y-6921500I50000J0D01*
G01*
X9702000Y-7493000D02*
G75*
G02*
X9602000Y-7493000I-50000J0D01*
G01*
X9602000Y-7493000D02*
G75*
G02*
X9702000Y-7493000I50000J0D01*
G01*
X9956000Y-7493000D02*
G75*
G02*
X9856000Y-7493000I-50000J0D01*
G01*
X9856000Y-7493000D02*
G75*
G02*
X9956000Y-7493000I50000J0D01*
G01*
X10210000Y-7493000D02*
G75*
G02*
X10110000Y-7493000I-50000J0D01*
G01*
X10110000Y-7493000D02*
G75*
G02*
X10210000Y-7493000I50000J0D01*
G01*
X10908500Y-7493000D02*
G75*
G02*
X10808500Y-7493000I-50000J0D01*
G01*
X10808500Y-7493000D02*
G75*
G02*
X10908500Y-7493000I50000J0D01*
G01*
X11475000Y-7475000D02*
G75*
G02*
X11375000Y-7475000I-50000J0D01*
G01*
X11375000Y-7475000D02*
G75*
G02*
X11475000Y-7475000I50000J0D01*
G01*
X11988000Y-4825000D02*
G75*
G02*
X11888000Y-4825000I-50000J0D01*
G01*
X11888000Y-4825000D02*
G75*
G02*
X11988000Y-4825000I50000J0D01*
G01*
X11988000Y-5397500D02*
G75*
G02*
X11888000Y-5397500I-50000J0D01*
G01*
X11888000Y-5397500D02*
G75*
G02*
X11988000Y-5397500I50000J0D01*
G01*
X11988000Y-6225000D02*
G75*
G02*
X11888000Y-6225000I-50000J0D01*
G01*
X11888000Y-6225000D02*
G75*
G02*
X11988000Y-6225000I50000J0D01*
G01*
X11988000Y-6479000D02*
G75*
G02*
X11888000Y-6479000I-50000J0D01*
G01*
X11888000Y-6479000D02*
G75*
G02*
X11988000Y-6479000I50000J0D01*
G01*
X11988000Y-6940000D02*
G75*
G02*
X11888000Y-6940000I-50000J0D01*
G01*
X11888000Y-6940000D02*
G75*
G02*
X11988000Y-6940000I50000J0D01*
G01*
X11988000Y-7475000D02*
G75*
G02*
X11888000Y-7475000I-50000J0D01*
G01*
X11888000Y-7475000D02*
G75*
G02*
X11988000Y-7475000I50000J0D01*
G01*
D11*
X7941777Y-8124484D02*
X7941777Y-7924484D01*
X7941777Y-7924484D02*
X7989396Y-7924484D01*
X7989396Y-7924484D02*
X8017967Y-7934008D01*
X8017967Y-7934008D02*
X8037015Y-7953055D01*
X8037015Y-7953055D02*
X8046539Y-7972103D01*
X8046539Y-7972103D02*
X8056062Y-8010198D01*
X8056062Y-8010198D02*
X8056062Y-8038769D01*
X8056062Y-8038769D02*
X8046539Y-8076865D01*
X8046539Y-8076865D02*
X8037015Y-8095912D01*
X8037015Y-8095912D02*
X8017967Y-8114960D01*
X8017967Y-8114960D02*
X7989396Y-8124484D01*
X7989396Y-8124484D02*
X7941777Y-8124484D01*
X8141777Y-8124484D02*
X8141777Y-7991150D01*
X8141777Y-8029246D02*
X8151301Y-8010198D01*
X8151301Y-8010198D02*
X8160824Y-8000674D01*
X8160824Y-8000674D02*
X8179872Y-7991150D01*
X8179872Y-7991150D02*
X8198920Y-7991150D01*
X8265586Y-8124484D02*
X8265586Y-7991150D01*
X8265586Y-7924484D02*
X8256062Y-7934008D01*
X8256062Y-7934008D02*
X8265586Y-7943531D01*
X8265586Y-7943531D02*
X8275110Y-7934008D01*
X8275110Y-7934008D02*
X8265586Y-7924484D01*
X8265586Y-7924484D02*
X8265586Y-7943531D01*
X8389396Y-8124484D02*
X8370348Y-8114960D01*
X8370348Y-8114960D02*
X8360824Y-8095912D01*
X8360824Y-8095912D02*
X8360824Y-7924484D01*
X8494158Y-8124484D02*
X8475110Y-8114960D01*
X8475110Y-8114960D02*
X8465586Y-8095912D01*
X8465586Y-8095912D02*
X8465586Y-7924484D01*
X8722729Y-8124484D02*
X8722729Y-7924484D01*
X8722729Y-7924484D02*
X8789396Y-8067341D01*
X8789396Y-8067341D02*
X8856063Y-7924484D01*
X8856063Y-7924484D02*
X8856063Y-8124484D01*
X9037015Y-8124484D02*
X9037015Y-8019722D01*
X9037015Y-8019722D02*
X9027491Y-8000674D01*
X9027491Y-8000674D02*
X9008444Y-7991150D01*
X9008444Y-7991150D02*
X8970348Y-7991150D01*
X8970348Y-7991150D02*
X8951301Y-8000674D01*
X9037015Y-8114960D02*
X9017967Y-8124484D01*
X9017967Y-8124484D02*
X8970348Y-8124484D01*
X8970348Y-8124484D02*
X8951301Y-8114960D01*
X8951301Y-8114960D02*
X8941777Y-8095912D01*
X8941777Y-8095912D02*
X8941777Y-8076865D01*
X8941777Y-8076865D02*
X8951301Y-8057817D01*
X8951301Y-8057817D02*
X8970348Y-8048293D01*
X8970348Y-8048293D02*
X9017967Y-8048293D01*
X9017967Y-8048293D02*
X9037015Y-8038769D01*
X9132253Y-7991150D02*
X9132253Y-8191150D01*
X9132253Y-8000674D02*
X9151301Y-7991150D01*
X9151301Y-7991150D02*
X9189396Y-7991150D01*
X9189396Y-7991150D02*
X9208444Y-8000674D01*
X9208444Y-8000674D02*
X9217967Y-8010198D01*
X9217967Y-8010198D02*
X9227491Y-8029246D01*
X9227491Y-8029246D02*
X9227491Y-8086388D01*
X9227491Y-8086388D02*
X9217967Y-8105436D01*
X9217967Y-8105436D02*
X9208444Y-8114960D01*
X9208444Y-8114960D02*
X9189396Y-8124484D01*
X9189396Y-8124484D02*
X9151301Y-8124484D01*
X9151301Y-8124484D02*
X9132253Y-8114960D01*
X9313205Y-8105436D02*
X9322729Y-8114960D01*
X9322729Y-8114960D02*
X9313205Y-8124484D01*
X9313205Y-8124484D02*
X9303682Y-8114960D01*
X9303682Y-8114960D02*
X9313205Y-8105436D01*
X9313205Y-8105436D02*
X9313205Y-8124484D01*
X9313205Y-8000674D02*
X9322729Y-8010198D01*
X9322729Y-8010198D02*
X9313205Y-8019722D01*
X9313205Y-8019722D02*
X9303682Y-8010198D01*
X9303682Y-8010198D02*
X9313205Y-8000674D01*
X9313205Y-8000674D02*
X9313205Y-8019722D01*
D12*
X7631000Y-8428000D02*
X7681000Y-8478000D01*
X7681000Y-8428000D02*
X7631000Y-8478000D01*
D11*
X7979872Y-8344484D02*
X7998920Y-8344484D01*
X7998920Y-8344484D02*
X8017967Y-8354008D01*
X8017967Y-8354008D02*
X8027491Y-8363531D01*
X8027491Y-8363531D02*
X8037015Y-8382579D01*
X8037015Y-8382579D02*
X8046539Y-8420674D01*
X8046539Y-8420674D02*
X8046539Y-8468293D01*
X8046539Y-8468293D02*
X8037015Y-8506389D01*
X8037015Y-8506389D02*
X8027491Y-8525436D01*
X8027491Y-8525436D02*
X8017967Y-8534960D01*
X8017967Y-8534960D02*
X7998920Y-8544484D01*
X7998920Y-8544484D02*
X7979872Y-8544484D01*
X7979872Y-8544484D02*
X7960824Y-8534960D01*
X7960824Y-8534960D02*
X7951301Y-8525436D01*
X7951301Y-8525436D02*
X7941777Y-8506389D01*
X7941777Y-8506389D02*
X7932253Y-8468293D01*
X7932253Y-8468293D02*
X7932253Y-8420674D01*
X7932253Y-8420674D02*
X7941777Y-8382579D01*
X7941777Y-8382579D02*
X7951301Y-8363531D01*
X7951301Y-8363531D02*
X7960824Y-8354008D01*
X7960824Y-8354008D02*
X7979872Y-8344484D01*
X8132253Y-8525436D02*
X8141777Y-8534960D01*
X8141777Y-8534960D02*
X8132253Y-8544484D01*
X8132253Y-8544484D02*
X8122729Y-8534960D01*
X8122729Y-8534960D02*
X8132253Y-8525436D01*
X8132253Y-8525436D02*
X8132253Y-8544484D01*
X8322729Y-8344484D02*
X8227491Y-8344484D01*
X8227491Y-8344484D02*
X8217967Y-8439722D01*
X8217967Y-8439722D02*
X8227491Y-8430198D01*
X8227491Y-8430198D02*
X8246539Y-8420674D01*
X8246539Y-8420674D02*
X8294158Y-8420674D01*
X8294158Y-8420674D02*
X8313205Y-8430198D01*
X8313205Y-8430198D02*
X8322729Y-8439722D01*
X8322729Y-8439722D02*
X8332253Y-8458770D01*
X8332253Y-8458770D02*
X8332253Y-8506389D01*
X8332253Y-8506389D02*
X8322729Y-8525436D01*
X8322729Y-8525436D02*
X8313205Y-8534960D01*
X8313205Y-8534960D02*
X8294158Y-8544484D01*
X8294158Y-8544484D02*
X8246539Y-8544484D01*
X8246539Y-8544484D02*
X8227491Y-8534960D01*
X8227491Y-8534960D02*
X8217967Y-8525436D01*
X8456063Y-8344484D02*
X8475110Y-8344484D01*
X8475110Y-8344484D02*
X8494158Y-8354008D01*
X8494158Y-8354008D02*
X8503682Y-8363531D01*
X8503682Y-8363531D02*
X8513205Y-8382579D01*
X8513205Y-8382579D02*
X8522729Y-8420674D01*
X8522729Y-8420674D02*
X8522729Y-8468293D01*
X8522729Y-8468293D02*
X8513205Y-8506389D01*
X8513205Y-8506389D02*
X8503682Y-8525436D01*
X8503682Y-8525436D02*
X8494158Y-8534960D01*
X8494158Y-8534960D02*
X8475110Y-8544484D01*
X8475110Y-8544484D02*
X8456063Y-8544484D01*
X8456063Y-8544484D02*
X8437015Y-8534960D01*
X8437015Y-8534960D02*
X8427491Y-8525436D01*
X8427491Y-8525436D02*
X8417967Y-8506389D01*
X8417967Y-8506389D02*
X8408444Y-8468293D01*
X8408444Y-8468293D02*
X8408444Y-8420674D01*
X8408444Y-8420674D02*
X8417967Y-8382579D01*
X8417967Y-8382579D02*
X8427491Y-8363531D01*
X8427491Y-8363531D02*
X8437015Y-8354008D01*
X8437015Y-8354008D02*
X8456063Y-8344484D01*
X8646539Y-8344484D02*
X8665586Y-8344484D01*
X8665586Y-8344484D02*
X8684634Y-8354008D01*
X8684634Y-8354008D02*
X8694158Y-8363531D01*
X8694158Y-8363531D02*
X8703682Y-8382579D01*
X8703682Y-8382579D02*
X8713205Y-8420674D01*
X8713205Y-8420674D02*
X8713205Y-8468293D01*
X8713205Y-8468293D02*
X8703682Y-8506389D01*
X8703682Y-8506389D02*
X8694158Y-8525436D01*
X8694158Y-8525436D02*
X8684634Y-8534960D01*
X8684634Y-8534960D02*
X8665586Y-8544484D01*
X8665586Y-8544484D02*
X8646539Y-8544484D01*
X8646539Y-8544484D02*
X8627491Y-8534960D01*
X8627491Y-8534960D02*
X8617967Y-8525436D01*
X8617967Y-8525436D02*
X8608444Y-8506389D01*
X8608444Y-8506389D02*
X8598920Y-8468293D01*
X8598920Y-8468293D02*
X8598920Y-8420674D01*
X8598920Y-8420674D02*
X8608444Y-8382579D01*
X8608444Y-8382579D02*
X8617967Y-8363531D01*
X8617967Y-8363531D02*
X8627491Y-8354008D01*
X8627491Y-8354008D02*
X8646539Y-8344484D01*
X8798920Y-8544484D02*
X8798920Y-8411150D01*
X8798920Y-8430198D02*
X8808444Y-8420674D01*
X8808444Y-8420674D02*
X8827491Y-8411150D01*
X8827491Y-8411150D02*
X8856063Y-8411150D01*
X8856063Y-8411150D02*
X8875110Y-8420674D01*
X8875110Y-8420674D02*
X8884634Y-8439722D01*
X8884634Y-8439722D02*
X8884634Y-8544484D01*
X8884634Y-8439722D02*
X8894158Y-8420674D01*
X8894158Y-8420674D02*
X8913205Y-8411150D01*
X8913205Y-8411150D02*
X8941777Y-8411150D01*
X8941777Y-8411150D02*
X8960825Y-8420674D01*
X8960825Y-8420674D02*
X8970348Y-8439722D01*
X8970348Y-8439722D02*
X8970348Y-8544484D01*
X9065586Y-8544484D02*
X9065586Y-8411150D01*
X9065586Y-8430198D02*
X9075110Y-8420674D01*
X9075110Y-8420674D02*
X9094158Y-8411150D01*
X9094158Y-8411150D02*
X9122729Y-8411150D01*
X9122729Y-8411150D02*
X9141777Y-8420674D01*
X9141777Y-8420674D02*
X9151301Y-8439722D01*
X9151301Y-8439722D02*
X9151301Y-8544484D01*
X9151301Y-8439722D02*
X9160825Y-8420674D01*
X9160825Y-8420674D02*
X9179872Y-8411150D01*
X9179872Y-8411150D02*
X9208444Y-8411150D01*
X9208444Y-8411150D02*
X9227491Y-8420674D01*
X9227491Y-8420674D02*
X9237015Y-8439722D01*
X9237015Y-8439722D02*
X9237015Y-8544484D01*
X9627491Y-8334960D02*
X9456063Y-8592103D01*
X9884634Y-8344484D02*
X9903682Y-8344484D01*
X9903682Y-8344484D02*
X9922729Y-8354008D01*
X9922729Y-8354008D02*
X9932253Y-8363531D01*
X9932253Y-8363531D02*
X9941777Y-8382579D01*
X9941777Y-8382579D02*
X9951301Y-8420674D01*
X9951301Y-8420674D02*
X9951301Y-8468293D01*
X9951301Y-8468293D02*
X9941777Y-8506389D01*
X9941777Y-8506389D02*
X9932253Y-8525436D01*
X9932253Y-8525436D02*
X9922729Y-8534960D01*
X9922729Y-8534960D02*
X9903682Y-8544484D01*
X9903682Y-8544484D02*
X9884634Y-8544484D01*
X9884634Y-8544484D02*
X9865587Y-8534960D01*
X9865587Y-8534960D02*
X9856063Y-8525436D01*
X9856063Y-8525436D02*
X9846539Y-8506389D01*
X9846539Y-8506389D02*
X9837015Y-8468293D01*
X9837015Y-8468293D02*
X9837015Y-8420674D01*
X9837015Y-8420674D02*
X9846539Y-8382579D01*
X9846539Y-8382579D02*
X9856063Y-8363531D01*
X9856063Y-8363531D02*
X9865587Y-8354008D01*
X9865587Y-8354008D02*
X9884634Y-8344484D01*
X10037015Y-8525436D02*
X10046539Y-8534960D01*
X10046539Y-8534960D02*
X10037015Y-8544484D01*
X10037015Y-8544484D02*
X10027491Y-8534960D01*
X10027491Y-8534960D02*
X10037015Y-8525436D01*
X10037015Y-8525436D02*
X10037015Y-8544484D01*
X10170348Y-8344484D02*
X10189396Y-8344484D01*
X10189396Y-8344484D02*
X10208444Y-8354008D01*
X10208444Y-8354008D02*
X10217968Y-8363531D01*
X10217968Y-8363531D02*
X10227491Y-8382579D01*
X10227491Y-8382579D02*
X10237015Y-8420674D01*
X10237015Y-8420674D02*
X10237015Y-8468293D01*
X10237015Y-8468293D02*
X10227491Y-8506389D01*
X10227491Y-8506389D02*
X10217968Y-8525436D01*
X10217968Y-8525436D02*
X10208444Y-8534960D01*
X10208444Y-8534960D02*
X10189396Y-8544484D01*
X10189396Y-8544484D02*
X10170348Y-8544484D01*
X10170348Y-8544484D02*
X10151301Y-8534960D01*
X10151301Y-8534960D02*
X10141777Y-8525436D01*
X10141777Y-8525436D02*
X10132253Y-8506389D01*
X10132253Y-8506389D02*
X10122729Y-8468293D01*
X10122729Y-8468293D02*
X10122729Y-8420674D01*
X10122729Y-8420674D02*
X10132253Y-8382579D01*
X10132253Y-8382579D02*
X10141777Y-8363531D01*
X10141777Y-8363531D02*
X10151301Y-8354008D01*
X10151301Y-8354008D02*
X10170348Y-8344484D01*
X10427491Y-8544484D02*
X10313206Y-8544484D01*
X10370348Y-8544484D02*
X10370348Y-8344484D01*
X10370348Y-8344484D02*
X10351301Y-8373055D01*
X10351301Y-8373055D02*
X10332253Y-8392103D01*
X10332253Y-8392103D02*
X10313206Y-8401627D01*
X10522729Y-8544484D02*
X10560825Y-8544484D01*
X10560825Y-8544484D02*
X10579872Y-8534960D01*
X10579872Y-8534960D02*
X10589396Y-8525436D01*
X10589396Y-8525436D02*
X10608444Y-8496865D01*
X10608444Y-8496865D02*
X10617968Y-8458770D01*
X10617968Y-8458770D02*
X10617968Y-8382579D01*
X10617968Y-8382579D02*
X10608444Y-8363531D01*
X10608444Y-8363531D02*
X10598920Y-8354008D01*
X10598920Y-8354008D02*
X10579872Y-8344484D01*
X10579872Y-8344484D02*
X10541777Y-8344484D01*
X10541777Y-8344484D02*
X10522729Y-8354008D01*
X10522729Y-8354008D02*
X10513206Y-8363531D01*
X10513206Y-8363531D02*
X10503682Y-8382579D01*
X10503682Y-8382579D02*
X10503682Y-8430198D01*
X10503682Y-8430198D02*
X10513206Y-8449246D01*
X10513206Y-8449246D02*
X10522729Y-8458770D01*
X10522729Y-8458770D02*
X10541777Y-8468293D01*
X10541777Y-8468293D02*
X10579872Y-8468293D01*
X10579872Y-8468293D02*
X10598920Y-8458770D01*
X10598920Y-8458770D02*
X10608444Y-8449246D01*
X10608444Y-8449246D02*
X10617968Y-8430198D01*
X10684634Y-8344484D02*
X10817968Y-8344484D01*
X10817968Y-8344484D02*
X10732253Y-8544484D01*
X10884634Y-8344484D02*
X10884634Y-8382579D01*
X10960825Y-8344484D02*
X10960825Y-8382579D01*
X11256063Y-8620674D02*
X11246539Y-8611150D01*
X11246539Y-8611150D02*
X11227491Y-8582579D01*
X11227491Y-8582579D02*
X11217968Y-8563531D01*
X11217968Y-8563531D02*
X11208444Y-8534960D01*
X11208444Y-8534960D02*
X11198920Y-8487341D01*
X11198920Y-8487341D02*
X11198920Y-8449246D01*
X11198920Y-8449246D02*
X11208444Y-8401627D01*
X11208444Y-8401627D02*
X11217968Y-8373055D01*
X11217968Y-8373055D02*
X11227491Y-8354008D01*
X11227491Y-8354008D02*
X11246539Y-8325436D01*
X11246539Y-8325436D02*
X11256063Y-8315912D01*
X11313206Y-8344484D02*
X11437015Y-8344484D01*
X11437015Y-8344484D02*
X11370348Y-8420674D01*
X11370348Y-8420674D02*
X11398920Y-8420674D01*
X11398920Y-8420674D02*
X11417968Y-8430198D01*
X11417968Y-8430198D02*
X11427491Y-8439722D01*
X11427491Y-8439722D02*
X11437015Y-8458770D01*
X11437015Y-8458770D02*
X11437015Y-8506389D01*
X11437015Y-8506389D02*
X11427491Y-8525436D01*
X11427491Y-8525436D02*
X11417968Y-8534960D01*
X11417968Y-8534960D02*
X11398920Y-8544484D01*
X11398920Y-8544484D02*
X11341777Y-8544484D01*
X11341777Y-8544484D02*
X11322729Y-8534960D01*
X11322729Y-8534960D02*
X11313206Y-8525436D01*
X11608444Y-8411150D02*
X11608444Y-8544484D01*
X11560825Y-8334960D02*
X11513206Y-8477817D01*
X11513206Y-8477817D02*
X11637015Y-8477817D01*
X11865587Y-8544484D02*
X11865587Y-8344484D01*
X11951301Y-8544484D02*
X11951301Y-8439722D01*
X11951301Y-8439722D02*
X11941777Y-8420674D01*
X11941777Y-8420674D02*
X11922730Y-8411150D01*
X11922730Y-8411150D02*
X11894158Y-8411150D01*
X11894158Y-8411150D02*
X11875110Y-8420674D01*
X11875110Y-8420674D02*
X11865587Y-8430198D01*
X12075110Y-8544484D02*
X12056063Y-8534960D01*
X12056063Y-8534960D02*
X12046539Y-8525436D01*
X12046539Y-8525436D02*
X12037015Y-8506389D01*
X12037015Y-8506389D02*
X12037015Y-8449246D01*
X12037015Y-8449246D02*
X12046539Y-8430198D01*
X12046539Y-8430198D02*
X12056063Y-8420674D01*
X12056063Y-8420674D02*
X12075110Y-8411150D01*
X12075110Y-8411150D02*
X12103682Y-8411150D01*
X12103682Y-8411150D02*
X12122730Y-8420674D01*
X12122730Y-8420674D02*
X12132253Y-8430198D01*
X12132253Y-8430198D02*
X12141777Y-8449246D01*
X12141777Y-8449246D02*
X12141777Y-8506389D01*
X12141777Y-8506389D02*
X12132253Y-8525436D01*
X12132253Y-8525436D02*
X12122730Y-8534960D01*
X12122730Y-8534960D02*
X12103682Y-8544484D01*
X12103682Y-8544484D02*
X12075110Y-8544484D01*
X12256063Y-8544484D02*
X12237015Y-8534960D01*
X12237015Y-8534960D02*
X12227491Y-8515912D01*
X12227491Y-8515912D02*
X12227491Y-8344484D01*
X12408444Y-8534960D02*
X12389396Y-8544484D01*
X12389396Y-8544484D02*
X12351301Y-8544484D01*
X12351301Y-8544484D02*
X12332253Y-8534960D01*
X12332253Y-8534960D02*
X12322730Y-8515912D01*
X12322730Y-8515912D02*
X12322730Y-8439722D01*
X12322730Y-8439722D02*
X12332253Y-8420674D01*
X12332253Y-8420674D02*
X12351301Y-8411150D01*
X12351301Y-8411150D02*
X12389396Y-8411150D01*
X12389396Y-8411150D02*
X12408444Y-8420674D01*
X12408444Y-8420674D02*
X12417968Y-8439722D01*
X12417968Y-8439722D02*
X12417968Y-8458770D01*
X12417968Y-8458770D02*
X12322730Y-8477817D01*
X12494158Y-8534960D02*
X12513206Y-8544484D01*
X12513206Y-8544484D02*
X12551301Y-8544484D01*
X12551301Y-8544484D02*
X12570349Y-8534960D01*
X12570349Y-8534960D02*
X12579872Y-8515912D01*
X12579872Y-8515912D02*
X12579872Y-8506389D01*
X12579872Y-8506389D02*
X12570349Y-8487341D01*
X12570349Y-8487341D02*
X12551301Y-8477817D01*
X12551301Y-8477817D02*
X12522730Y-8477817D01*
X12522730Y-8477817D02*
X12503682Y-8468293D01*
X12503682Y-8468293D02*
X12494158Y-8449246D01*
X12494158Y-8449246D02*
X12494158Y-8439722D01*
X12494158Y-8439722D02*
X12503682Y-8420674D01*
X12503682Y-8420674D02*
X12522730Y-8411150D01*
X12522730Y-8411150D02*
X12551301Y-8411150D01*
X12551301Y-8411150D02*
X12570349Y-8420674D01*
X12646539Y-8620674D02*
X12656063Y-8611150D01*
X12656063Y-8611150D02*
X12675111Y-8582579D01*
X12675111Y-8582579D02*
X12684634Y-8563531D01*
X12684634Y-8563531D02*
X12694158Y-8534960D01*
X12694158Y-8534960D02*
X12703682Y-8487341D01*
X12703682Y-8487341D02*
X12703682Y-8449246D01*
X12703682Y-8449246D02*
X12694158Y-8401627D01*
X12694158Y-8401627D02*
X12684634Y-8373055D01*
X12684634Y-8373055D02*
X12675111Y-8354008D01*
X12675111Y-8354008D02*
X12656063Y-8325436D01*
X12656063Y-8325436D02*
X12646539Y-8315912D01*
D12*
X7681000Y-8717000D02*
G75*
G02*
X7581000Y-8717000I-50000J0D01*
G01*
X7581000Y-8717000D02*
G75*
G02*
X7681000Y-8717000I50000J0D01*
G01*
D11*
X8046539Y-8808484D02*
X7932253Y-8808484D01*
X7989396Y-8808484D02*
X7989396Y-8608484D01*
X7989396Y-8608484D02*
X7970348Y-8637055D01*
X7970348Y-8637055D02*
X7951301Y-8656103D01*
X7951301Y-8656103D02*
X7932253Y-8665627D01*
X8132253Y-8789436D02*
X8141777Y-8798960D01*
X8141777Y-8798960D02*
X8132253Y-8808484D01*
X8132253Y-8808484D02*
X8122729Y-8798960D01*
X8122729Y-8798960D02*
X8132253Y-8789436D01*
X8132253Y-8789436D02*
X8132253Y-8808484D01*
X8265586Y-8608484D02*
X8284634Y-8608484D01*
X8284634Y-8608484D02*
X8303682Y-8618008D01*
X8303682Y-8618008D02*
X8313205Y-8627531D01*
X8313205Y-8627531D02*
X8322729Y-8646579D01*
X8322729Y-8646579D02*
X8332253Y-8684674D01*
X8332253Y-8684674D02*
X8332253Y-8732293D01*
X8332253Y-8732293D02*
X8322729Y-8770389D01*
X8322729Y-8770389D02*
X8313205Y-8789436D01*
X8313205Y-8789436D02*
X8303682Y-8798960D01*
X8303682Y-8798960D02*
X8284634Y-8808484D01*
X8284634Y-8808484D02*
X8265586Y-8808484D01*
X8265586Y-8808484D02*
X8246539Y-8798960D01*
X8246539Y-8798960D02*
X8237015Y-8789436D01*
X8237015Y-8789436D02*
X8227491Y-8770389D01*
X8227491Y-8770389D02*
X8217967Y-8732293D01*
X8217967Y-8732293D02*
X8217967Y-8684674D01*
X8217967Y-8684674D02*
X8227491Y-8646579D01*
X8227491Y-8646579D02*
X8237015Y-8627531D01*
X8237015Y-8627531D02*
X8246539Y-8618008D01*
X8246539Y-8618008D02*
X8265586Y-8608484D01*
X8456063Y-8608484D02*
X8475110Y-8608484D01*
X8475110Y-8608484D02*
X8494158Y-8618008D01*
X8494158Y-8618008D02*
X8503682Y-8627531D01*
X8503682Y-8627531D02*
X8513205Y-8646579D01*
X8513205Y-8646579D02*
X8522729Y-8684674D01*
X8522729Y-8684674D02*
X8522729Y-8732293D01*
X8522729Y-8732293D02*
X8513205Y-8770389D01*
X8513205Y-8770389D02*
X8503682Y-8789436D01*
X8503682Y-8789436D02*
X8494158Y-8798960D01*
X8494158Y-8798960D02*
X8475110Y-8808484D01*
X8475110Y-8808484D02*
X8456063Y-8808484D01*
X8456063Y-8808484D02*
X8437015Y-8798960D01*
X8437015Y-8798960D02*
X8427491Y-8789436D01*
X8427491Y-8789436D02*
X8417967Y-8770389D01*
X8417967Y-8770389D02*
X8408444Y-8732293D01*
X8408444Y-8732293D02*
X8408444Y-8684674D01*
X8408444Y-8684674D02*
X8417967Y-8646579D01*
X8417967Y-8646579D02*
X8427491Y-8627531D01*
X8427491Y-8627531D02*
X8437015Y-8618008D01*
X8437015Y-8618008D02*
X8456063Y-8608484D01*
X8646539Y-8608484D02*
X8665586Y-8608484D01*
X8665586Y-8608484D02*
X8684634Y-8618008D01*
X8684634Y-8618008D02*
X8694158Y-8627531D01*
X8694158Y-8627531D02*
X8703682Y-8646579D01*
X8703682Y-8646579D02*
X8713205Y-8684674D01*
X8713205Y-8684674D02*
X8713205Y-8732293D01*
X8713205Y-8732293D02*
X8703682Y-8770389D01*
X8703682Y-8770389D02*
X8694158Y-8789436D01*
X8694158Y-8789436D02*
X8684634Y-8798960D01*
X8684634Y-8798960D02*
X8665586Y-8808484D01*
X8665586Y-8808484D02*
X8646539Y-8808484D01*
X8646539Y-8808484D02*
X8627491Y-8798960D01*
X8627491Y-8798960D02*
X8617967Y-8789436D01*
X8617967Y-8789436D02*
X8608444Y-8770389D01*
X8608444Y-8770389D02*
X8598920Y-8732293D01*
X8598920Y-8732293D02*
X8598920Y-8684674D01*
X8598920Y-8684674D02*
X8608444Y-8646579D01*
X8608444Y-8646579D02*
X8617967Y-8627531D01*
X8617967Y-8627531D02*
X8627491Y-8618008D01*
X8627491Y-8618008D02*
X8646539Y-8608484D01*
X8798920Y-8808484D02*
X8798920Y-8675150D01*
X8798920Y-8694198D02*
X8808444Y-8684674D01*
X8808444Y-8684674D02*
X8827491Y-8675150D01*
X8827491Y-8675150D02*
X8856063Y-8675150D01*
X8856063Y-8675150D02*
X8875110Y-8684674D01*
X8875110Y-8684674D02*
X8884634Y-8703722D01*
X8884634Y-8703722D02*
X8884634Y-8808484D01*
X8884634Y-8703722D02*
X8894158Y-8684674D01*
X8894158Y-8684674D02*
X8913205Y-8675150D01*
X8913205Y-8675150D02*
X8941777Y-8675150D01*
X8941777Y-8675150D02*
X8960825Y-8684674D01*
X8960825Y-8684674D02*
X8970348Y-8703722D01*
X8970348Y-8703722D02*
X8970348Y-8808484D01*
X9065586Y-8808484D02*
X9065586Y-8675150D01*
X9065586Y-8694198D02*
X9075110Y-8684674D01*
X9075110Y-8684674D02*
X9094158Y-8675150D01*
X9094158Y-8675150D02*
X9122729Y-8675150D01*
X9122729Y-8675150D02*
X9141777Y-8684674D01*
X9141777Y-8684674D02*
X9151301Y-8703722D01*
X9151301Y-8703722D02*
X9151301Y-8808484D01*
X9151301Y-8703722D02*
X9160825Y-8684674D01*
X9160825Y-8684674D02*
X9179872Y-8675150D01*
X9179872Y-8675150D02*
X9208444Y-8675150D01*
X9208444Y-8675150D02*
X9227491Y-8684674D01*
X9227491Y-8684674D02*
X9237015Y-8703722D01*
X9237015Y-8703722D02*
X9237015Y-8808484D01*
X9627491Y-8598960D02*
X9456063Y-8856103D01*
X9884634Y-8608484D02*
X9903682Y-8608484D01*
X9903682Y-8608484D02*
X9922729Y-8618008D01*
X9922729Y-8618008D02*
X9932253Y-8627531D01*
X9932253Y-8627531D02*
X9941777Y-8646579D01*
X9941777Y-8646579D02*
X9951301Y-8684674D01*
X9951301Y-8684674D02*
X9951301Y-8732293D01*
X9951301Y-8732293D02*
X9941777Y-8770389D01*
X9941777Y-8770389D02*
X9932253Y-8789436D01*
X9932253Y-8789436D02*
X9922729Y-8798960D01*
X9922729Y-8798960D02*
X9903682Y-8808484D01*
X9903682Y-8808484D02*
X9884634Y-8808484D01*
X9884634Y-8808484D02*
X9865587Y-8798960D01*
X9865587Y-8798960D02*
X9856063Y-8789436D01*
X9856063Y-8789436D02*
X9846539Y-8770389D01*
X9846539Y-8770389D02*
X9837015Y-8732293D01*
X9837015Y-8732293D02*
X9837015Y-8684674D01*
X9837015Y-8684674D02*
X9846539Y-8646579D01*
X9846539Y-8646579D02*
X9856063Y-8627531D01*
X9856063Y-8627531D02*
X9865587Y-8618008D01*
X9865587Y-8618008D02*
X9884634Y-8608484D01*
X10037015Y-8789436D02*
X10046539Y-8798960D01*
X10046539Y-8798960D02*
X10037015Y-8808484D01*
X10037015Y-8808484D02*
X10027491Y-8798960D01*
X10027491Y-8798960D02*
X10037015Y-8789436D01*
X10037015Y-8789436D02*
X10037015Y-8808484D01*
X10170348Y-8608484D02*
X10189396Y-8608484D01*
X10189396Y-8608484D02*
X10208444Y-8618008D01*
X10208444Y-8618008D02*
X10217968Y-8627531D01*
X10217968Y-8627531D02*
X10227491Y-8646579D01*
X10227491Y-8646579D02*
X10237015Y-8684674D01*
X10237015Y-8684674D02*
X10237015Y-8732293D01*
X10237015Y-8732293D02*
X10227491Y-8770389D01*
X10227491Y-8770389D02*
X10217968Y-8789436D01*
X10217968Y-8789436D02*
X10208444Y-8798960D01*
X10208444Y-8798960D02*
X10189396Y-8808484D01*
X10189396Y-8808484D02*
X10170348Y-8808484D01*
X10170348Y-8808484D02*
X10151301Y-8798960D01*
X10151301Y-8798960D02*
X10141777Y-8789436D01*
X10141777Y-8789436D02*
X10132253Y-8770389D01*
X10132253Y-8770389D02*
X10122729Y-8732293D01*
X10122729Y-8732293D02*
X10122729Y-8684674D01*
X10122729Y-8684674D02*
X10132253Y-8646579D01*
X10132253Y-8646579D02*
X10141777Y-8627531D01*
X10141777Y-8627531D02*
X10151301Y-8618008D01*
X10151301Y-8618008D02*
X10170348Y-8608484D01*
X10303682Y-8608484D02*
X10427491Y-8608484D01*
X10427491Y-8608484D02*
X10360825Y-8684674D01*
X10360825Y-8684674D02*
X10389396Y-8684674D01*
X10389396Y-8684674D02*
X10408444Y-8694198D01*
X10408444Y-8694198D02*
X10417968Y-8703722D01*
X10417968Y-8703722D02*
X10427491Y-8722770D01*
X10427491Y-8722770D02*
X10427491Y-8770389D01*
X10427491Y-8770389D02*
X10417968Y-8789436D01*
X10417968Y-8789436D02*
X10408444Y-8798960D01*
X10408444Y-8798960D02*
X10389396Y-8808484D01*
X10389396Y-8808484D02*
X10332253Y-8808484D01*
X10332253Y-8808484D02*
X10313206Y-8798960D01*
X10313206Y-8798960D02*
X10303682Y-8789436D01*
X10522729Y-8808484D02*
X10560825Y-8808484D01*
X10560825Y-8808484D02*
X10579872Y-8798960D01*
X10579872Y-8798960D02*
X10589396Y-8789436D01*
X10589396Y-8789436D02*
X10608444Y-8760865D01*
X10608444Y-8760865D02*
X10617968Y-8722770D01*
X10617968Y-8722770D02*
X10617968Y-8646579D01*
X10617968Y-8646579D02*
X10608444Y-8627531D01*
X10608444Y-8627531D02*
X10598920Y-8618008D01*
X10598920Y-8618008D02*
X10579872Y-8608484D01*
X10579872Y-8608484D02*
X10541777Y-8608484D01*
X10541777Y-8608484D02*
X10522729Y-8618008D01*
X10522729Y-8618008D02*
X10513206Y-8627531D01*
X10513206Y-8627531D02*
X10503682Y-8646579D01*
X10503682Y-8646579D02*
X10503682Y-8694198D01*
X10503682Y-8694198D02*
X10513206Y-8713246D01*
X10513206Y-8713246D02*
X10522729Y-8722770D01*
X10522729Y-8722770D02*
X10541777Y-8732293D01*
X10541777Y-8732293D02*
X10579872Y-8732293D01*
X10579872Y-8732293D02*
X10598920Y-8722770D01*
X10598920Y-8722770D02*
X10608444Y-8713246D01*
X10608444Y-8713246D02*
X10617968Y-8694198D01*
X10789396Y-8675150D02*
X10789396Y-8808484D01*
X10741777Y-8598960D02*
X10694158Y-8741817D01*
X10694158Y-8741817D02*
X10817968Y-8741817D01*
X10884634Y-8608484D02*
X10884634Y-8646579D01*
X10960825Y-8608484D02*
X10960825Y-8646579D01*
X11256063Y-8884674D02*
X11246539Y-8875150D01*
X11246539Y-8875150D02*
X11227491Y-8846579D01*
X11227491Y-8846579D02*
X11217968Y-8827531D01*
X11217968Y-8827531D02*
X11208444Y-8798960D01*
X11208444Y-8798960D02*
X11198920Y-8751341D01*
X11198920Y-8751341D02*
X11198920Y-8713246D01*
X11198920Y-8713246D02*
X11208444Y-8665627D01*
X11208444Y-8665627D02*
X11217968Y-8637055D01*
X11217968Y-8637055D02*
X11227491Y-8618008D01*
X11227491Y-8618008D02*
X11246539Y-8589436D01*
X11246539Y-8589436D02*
X11256063Y-8579912D01*
X11322729Y-8627531D02*
X11332253Y-8618008D01*
X11332253Y-8618008D02*
X11351301Y-8608484D01*
X11351301Y-8608484D02*
X11398920Y-8608484D01*
X11398920Y-8608484D02*
X11417968Y-8618008D01*
X11417968Y-8618008D02*
X11427491Y-8627531D01*
X11427491Y-8627531D02*
X11437015Y-8646579D01*
X11437015Y-8646579D02*
X11437015Y-8665627D01*
X11437015Y-8665627D02*
X11427491Y-8694198D01*
X11427491Y-8694198D02*
X11313206Y-8808484D01*
X11313206Y-8808484D02*
X11437015Y-8808484D01*
X11627491Y-8808484D02*
X11513206Y-8808484D01*
X11570348Y-8808484D02*
X11570348Y-8608484D01*
X11570348Y-8608484D02*
X11551301Y-8637055D01*
X11551301Y-8637055D02*
X11532253Y-8656103D01*
X11532253Y-8656103D02*
X11513206Y-8665627D01*
X11865587Y-8808484D02*
X11865587Y-8608484D01*
X11951301Y-8808484D02*
X11951301Y-8703722D01*
X11951301Y-8703722D02*
X11941777Y-8684674D01*
X11941777Y-8684674D02*
X11922730Y-8675150D01*
X11922730Y-8675150D02*
X11894158Y-8675150D01*
X11894158Y-8675150D02*
X11875110Y-8684674D01*
X11875110Y-8684674D02*
X11865587Y-8694198D01*
X12075110Y-8808484D02*
X12056063Y-8798960D01*
X12056063Y-8798960D02*
X12046539Y-8789436D01*
X12046539Y-8789436D02*
X12037015Y-8770389D01*
X12037015Y-8770389D02*
X12037015Y-8713246D01*
X12037015Y-8713246D02*
X12046539Y-8694198D01*
X12046539Y-8694198D02*
X12056063Y-8684674D01*
X12056063Y-8684674D02*
X12075110Y-8675150D01*
X12075110Y-8675150D02*
X12103682Y-8675150D01*
X12103682Y-8675150D02*
X12122730Y-8684674D01*
X12122730Y-8684674D02*
X12132253Y-8694198D01*
X12132253Y-8694198D02*
X12141777Y-8713246D01*
X12141777Y-8713246D02*
X12141777Y-8770389D01*
X12141777Y-8770389D02*
X12132253Y-8789436D01*
X12132253Y-8789436D02*
X12122730Y-8798960D01*
X12122730Y-8798960D02*
X12103682Y-8808484D01*
X12103682Y-8808484D02*
X12075110Y-8808484D01*
X12256063Y-8808484D02*
X12237015Y-8798960D01*
X12237015Y-8798960D02*
X12227491Y-8779912D01*
X12227491Y-8779912D02*
X12227491Y-8608484D01*
X12408444Y-8798960D02*
X12389396Y-8808484D01*
X12389396Y-8808484D02*
X12351301Y-8808484D01*
X12351301Y-8808484D02*
X12332253Y-8798960D01*
X12332253Y-8798960D02*
X12322730Y-8779912D01*
X12322730Y-8779912D02*
X12322730Y-8703722D01*
X12322730Y-8703722D02*
X12332253Y-8684674D01*
X12332253Y-8684674D02*
X12351301Y-8675150D01*
X12351301Y-8675150D02*
X12389396Y-8675150D01*
X12389396Y-8675150D02*
X12408444Y-8684674D01*
X12408444Y-8684674D02*
X12417968Y-8703722D01*
X12417968Y-8703722D02*
X12417968Y-8722770D01*
X12417968Y-8722770D02*
X12322730Y-8741817D01*
X12494158Y-8798960D02*
X12513206Y-8808484D01*
X12513206Y-8808484D02*
X12551301Y-8808484D01*
X12551301Y-8808484D02*
X12570349Y-8798960D01*
X12570349Y-8798960D02*
X12579872Y-8779912D01*
X12579872Y-8779912D02*
X12579872Y-8770389D01*
X12579872Y-8770389D02*
X12570349Y-8751341D01*
X12570349Y-8751341D02*
X12551301Y-8741817D01*
X12551301Y-8741817D02*
X12522730Y-8741817D01*
X12522730Y-8741817D02*
X12503682Y-8732293D01*
X12503682Y-8732293D02*
X12494158Y-8713246D01*
X12494158Y-8713246D02*
X12494158Y-8703722D01*
X12494158Y-8703722D02*
X12503682Y-8684674D01*
X12503682Y-8684674D02*
X12522730Y-8675150D01*
X12522730Y-8675150D02*
X12551301Y-8675150D01*
X12551301Y-8675150D02*
X12570349Y-8684674D01*
X12646539Y-8884674D02*
X12656063Y-8875150D01*
X12656063Y-8875150D02*
X12675111Y-8846579D01*
X12675111Y-8846579D02*
X12684634Y-8827531D01*
X12684634Y-8827531D02*
X12694158Y-8798960D01*
X12694158Y-8798960D02*
X12703682Y-8751341D01*
X12703682Y-8751341D02*
X12703682Y-8713246D01*
X12703682Y-8713246D02*
X12694158Y-8665627D01*
X12694158Y-8665627D02*
X12684634Y-8637055D01*
X12684634Y-8637055D02*
X12675111Y-8618008D01*
X12675111Y-8618008D02*
X12656063Y-8589436D01*
X12656063Y-8589436D02*
X12646539Y-8579912D01*
M02*
