%TF.GenerationSoftware,KiCad,Pcbnew,9.0.4*%
%TF.CreationDate,2026-01-20T15:48:25-08:00*%
%TF.ProjectId,FrontLight,46726f6e-744c-4696-9768-742e6b696361,rev?*%
%TF.SameCoordinates,Original*%
%TF.FileFunction,Drillmap*%
%TF.FilePolarity,Positive*%
%FSLAX45Y45*%
G04 Gerber Fmt 4.5, Leading zero omitted, Abs format (unit mm)*
G04 Created by KiCad (PCBNEW 9.0.4) date 2026-01-20 15:48:25*
%MOMM*%
%LPD*%
G01*
G04 APERTURE LIST*
%ADD10C,0.050000*%
%ADD11C,0.200000*%
G04 APERTURE END LIST*
D10*
X12192000Y-7747000D02*
X12192000Y-4191000D01*
X12192000Y-7810500D02*
X12192000Y-7747000D01*
X7683500Y-7810500D02*
X12192000Y-7810500D01*
X7683500Y-4191000D02*
X7683500Y-7810500D01*
X12192000Y-4191000D02*
X7683500Y-4191000D01*
D11*
X7941777Y-8124484D02*
X7941777Y-7924484D01*
X7941777Y-7924484D02*
X7989396Y-7924484D01*
X7989396Y-7924484D02*
X8017967Y-7934008D01*
X8017967Y-7934008D02*
X8037015Y-7953055D01*
X8037015Y-7953055D02*
X8046539Y-7972103D01*
X8046539Y-7972103D02*
X8056062Y-8010198D01*
X8056062Y-8010198D02*
X8056062Y-8038769D01*
X8056062Y-8038769D02*
X8046539Y-8076865D01*
X8046539Y-8076865D02*
X8037015Y-8095912D01*
X8037015Y-8095912D02*
X8017967Y-8114960D01*
X8017967Y-8114960D02*
X7989396Y-8124484D01*
X7989396Y-8124484D02*
X7941777Y-8124484D01*
X8141777Y-8124484D02*
X8141777Y-7991150D01*
X8141777Y-8029246D02*
X8151301Y-8010198D01*
X8151301Y-8010198D02*
X8160824Y-8000674D01*
X8160824Y-8000674D02*
X8179872Y-7991150D01*
X8179872Y-7991150D02*
X8198920Y-7991150D01*
X8265586Y-8124484D02*
X8265586Y-7991150D01*
X8265586Y-7924484D02*
X8256062Y-7934008D01*
X8256062Y-7934008D02*
X8265586Y-7943531D01*
X8265586Y-7943531D02*
X8275110Y-7934008D01*
X8275110Y-7934008D02*
X8265586Y-7924484D01*
X8265586Y-7924484D02*
X8265586Y-7943531D01*
X8389396Y-8124484D02*
X8370348Y-8114960D01*
X8370348Y-8114960D02*
X8360824Y-8095912D01*
X8360824Y-8095912D02*
X8360824Y-7924484D01*
X8494158Y-8124484D02*
X8475110Y-8114960D01*
X8475110Y-8114960D02*
X8465586Y-8095912D01*
X8465586Y-8095912D02*
X8465586Y-7924484D01*
X8722729Y-8124484D02*
X8722729Y-7924484D01*
X8722729Y-7924484D02*
X8789396Y-8067341D01*
X8789396Y-8067341D02*
X8856063Y-7924484D01*
X8856063Y-7924484D02*
X8856063Y-8124484D01*
X9037015Y-8124484D02*
X9037015Y-8019722D01*
X9037015Y-8019722D02*
X9027491Y-8000674D01*
X9027491Y-8000674D02*
X9008444Y-7991150D01*
X9008444Y-7991150D02*
X8970348Y-7991150D01*
X8970348Y-7991150D02*
X8951301Y-8000674D01*
X9037015Y-8114960D02*
X9017967Y-8124484D01*
X9017967Y-8124484D02*
X8970348Y-8124484D01*
X8970348Y-8124484D02*
X8951301Y-8114960D01*
X8951301Y-8114960D02*
X8941777Y-8095912D01*
X8941777Y-8095912D02*
X8941777Y-8076865D01*
X8941777Y-8076865D02*
X8951301Y-8057817D01*
X8951301Y-8057817D02*
X8970348Y-8048293D01*
X8970348Y-8048293D02*
X9017967Y-8048293D01*
X9017967Y-8048293D02*
X9037015Y-8038769D01*
X9132253Y-7991150D02*
X9132253Y-8191150D01*
X9132253Y-8000674D02*
X9151301Y-7991150D01*
X9151301Y-7991150D02*
X9189396Y-7991150D01*
X9189396Y-7991150D02*
X9208444Y-8000674D01*
X9208444Y-8000674D02*
X9217967Y-8010198D01*
X9217967Y-8010198D02*
X9227491Y-8029246D01*
X9227491Y-8029246D02*
X9227491Y-8086388D01*
X9227491Y-8086388D02*
X9217967Y-8105436D01*
X9217967Y-8105436D02*
X9208444Y-8114960D01*
X9208444Y-8114960D02*
X9189396Y-8124484D01*
X9189396Y-8124484D02*
X9151301Y-8124484D01*
X9151301Y-8124484D02*
X9132253Y-8114960D01*
X9313205Y-8105436D02*
X9322729Y-8114960D01*
X9322729Y-8114960D02*
X9313205Y-8124484D01*
X9313205Y-8124484D02*
X9303682Y-8114960D01*
X9303682Y-8114960D02*
X9313205Y-8105436D01*
X9313205Y-8105436D02*
X9313205Y-8124484D01*
X9313205Y-8000674D02*
X9322729Y-8010198D01*
X9322729Y-8010198D02*
X9313205Y-8019722D01*
X9313205Y-8019722D02*
X9303682Y-8010198D01*
X9303682Y-8010198D02*
X9313205Y-8000674D01*
X9313205Y-8000674D02*
X9313205Y-8019722D01*
M02*
