%TF.GenerationSoftware,KiCad,Pcbnew,9.0.4*%
%TF.CreationDate,2026-01-20T15:52:17-08:00*%
%TF.ProjectId,FrontLight,46726f6e-744c-4696-9768-742e6b696361,rev?*%
%TF.SameCoordinates,Original*%
%TF.FileFunction,Legend,Top*%
%TF.FilePolarity,Positive*%
%FSLAX46Y46*%
G04 Gerber Fmt 4.6, Leading zero omitted, Abs format (unit mm)*
G04 Created by KiCad (PCBNEW 9.0.4) date 2026-01-20 15:52:17*
%MOMM*%
%LPD*%
G01*
G04 APERTURE LIST*
%ADD10C,0.150000*%
%ADD11C,0.125000*%
%ADD12C,0.120000*%
%ADD13C,0.152400*%
G04 APERTURE END LIST*
D10*
X87496667Y-75862295D02*
X87230000Y-75481342D01*
X87039524Y-75862295D02*
X87039524Y-75062295D01*
X87039524Y-75062295D02*
X87344286Y-75062295D01*
X87344286Y-75062295D02*
X87420476Y-75100390D01*
X87420476Y-75100390D02*
X87458571Y-75138485D01*
X87458571Y-75138485D02*
X87496667Y-75214676D01*
X87496667Y-75214676D02*
X87496667Y-75328961D01*
X87496667Y-75328961D02*
X87458571Y-75405152D01*
X87458571Y-75405152D02*
X87420476Y-75443247D01*
X87420476Y-75443247D02*
X87344286Y-75481342D01*
X87344286Y-75481342D02*
X87039524Y-75481342D01*
X88220476Y-75062295D02*
X87839524Y-75062295D01*
X87839524Y-75062295D02*
X87801428Y-75443247D01*
X87801428Y-75443247D02*
X87839524Y-75405152D01*
X87839524Y-75405152D02*
X87915714Y-75367057D01*
X87915714Y-75367057D02*
X88106190Y-75367057D01*
X88106190Y-75367057D02*
X88182381Y-75405152D01*
X88182381Y-75405152D02*
X88220476Y-75443247D01*
X88220476Y-75443247D02*
X88258571Y-75519438D01*
X88258571Y-75519438D02*
X88258571Y-75709914D01*
X88258571Y-75709914D02*
X88220476Y-75786104D01*
X88220476Y-75786104D02*
X88182381Y-75824200D01*
X88182381Y-75824200D02*
X88106190Y-75862295D01*
X88106190Y-75862295D02*
X87915714Y-75862295D01*
X87915714Y-75862295D02*
X87839524Y-75824200D01*
X87839524Y-75824200D02*
X87801428Y-75786104D01*
X92447618Y-75292295D02*
X91990475Y-75292295D01*
X92219047Y-75292295D02*
X92219047Y-74492295D01*
X92219047Y-74492295D02*
X92142856Y-74606580D01*
X92142856Y-74606580D02*
X92066666Y-74682771D01*
X92066666Y-74682771D02*
X91990475Y-74720866D01*
X92942857Y-74492295D02*
X93019047Y-74492295D01*
X93019047Y-74492295D02*
X93095238Y-74530390D01*
X93095238Y-74530390D02*
X93133333Y-74568485D01*
X93133333Y-74568485D02*
X93171428Y-74644676D01*
X93171428Y-74644676D02*
X93209523Y-74797057D01*
X93209523Y-74797057D02*
X93209523Y-74987533D01*
X93209523Y-74987533D02*
X93171428Y-75139914D01*
X93171428Y-75139914D02*
X93133333Y-75216104D01*
X93133333Y-75216104D02*
X93095238Y-75254200D01*
X93095238Y-75254200D02*
X93019047Y-75292295D01*
X93019047Y-75292295D02*
X92942857Y-75292295D01*
X92942857Y-75292295D02*
X92866666Y-75254200D01*
X92866666Y-75254200D02*
X92828571Y-75216104D01*
X92828571Y-75216104D02*
X92790476Y-75139914D01*
X92790476Y-75139914D02*
X92752380Y-74987533D01*
X92752380Y-74987533D02*
X92752380Y-74797057D01*
X92752380Y-74797057D02*
X92790476Y-74644676D01*
X92790476Y-74644676D02*
X92828571Y-74568485D01*
X92828571Y-74568485D02*
X92866666Y-74530390D01*
X92866666Y-74530390D02*
X92942857Y-74492295D01*
X93552381Y-75292295D02*
X93552381Y-74492295D01*
X94009524Y-75292295D02*
X93666666Y-74835152D01*
X94009524Y-74492295D02*
X93552381Y-74949438D01*
X118370476Y-51797295D02*
X117989524Y-51797295D01*
X117989524Y-51797295D02*
X117989524Y-50997295D01*
X118637143Y-51378247D02*
X118903809Y-51378247D01*
X119018095Y-51797295D02*
X118637143Y-51797295D01*
X118637143Y-51797295D02*
X118637143Y-50997295D01*
X118637143Y-50997295D02*
X119018095Y-50997295D01*
X119360953Y-51797295D02*
X119360953Y-50997295D01*
X119360953Y-50997295D02*
X119551429Y-50997295D01*
X119551429Y-50997295D02*
X119665715Y-51035390D01*
X119665715Y-51035390D02*
X119741905Y-51111580D01*
X119741905Y-51111580D02*
X119780000Y-51187771D01*
X119780000Y-51187771D02*
X119818096Y-51340152D01*
X119818096Y-51340152D02*
X119818096Y-51454438D01*
X119818096Y-51454438D02*
X119780000Y-51606819D01*
X119780000Y-51606819D02*
X119741905Y-51683009D01*
X119741905Y-51683009D02*
X119665715Y-51759200D01*
X119665715Y-51759200D02*
X119551429Y-51797295D01*
X119551429Y-51797295D02*
X119360953Y-51797295D01*
X120160953Y-51492533D02*
X120770477Y-51492533D01*
X120465715Y-51797295D02*
X120465715Y-51187771D01*
X82857142Y-71272295D02*
X83352380Y-71272295D01*
X83352380Y-71272295D02*
X83085714Y-71577057D01*
X83085714Y-71577057D02*
X83199999Y-71577057D01*
X83199999Y-71577057D02*
X83276190Y-71615152D01*
X83276190Y-71615152D02*
X83314285Y-71653247D01*
X83314285Y-71653247D02*
X83352380Y-71729438D01*
X83352380Y-71729438D02*
X83352380Y-71919914D01*
X83352380Y-71919914D02*
X83314285Y-71996104D01*
X83314285Y-71996104D02*
X83276190Y-72034200D01*
X83276190Y-72034200D02*
X83199999Y-72072295D01*
X83199999Y-72072295D02*
X82971428Y-72072295D01*
X82971428Y-72072295D02*
X82895237Y-72034200D01*
X82895237Y-72034200D02*
X82857142Y-71996104D01*
X83695238Y-71996104D02*
X83733333Y-72034200D01*
X83733333Y-72034200D02*
X83695238Y-72072295D01*
X83695238Y-72072295D02*
X83657142Y-72034200D01*
X83657142Y-72034200D02*
X83695238Y-71996104D01*
X83695238Y-71996104D02*
X83695238Y-72072295D01*
X83999999Y-71272295D02*
X84495237Y-71272295D01*
X84495237Y-71272295D02*
X84228571Y-71577057D01*
X84228571Y-71577057D02*
X84342856Y-71577057D01*
X84342856Y-71577057D02*
X84419047Y-71615152D01*
X84419047Y-71615152D02*
X84457142Y-71653247D01*
X84457142Y-71653247D02*
X84495237Y-71729438D01*
X84495237Y-71729438D02*
X84495237Y-71919914D01*
X84495237Y-71919914D02*
X84457142Y-71996104D01*
X84457142Y-71996104D02*
X84419047Y-72034200D01*
X84419047Y-72034200D02*
X84342856Y-72072295D01*
X84342856Y-72072295D02*
X84114285Y-72072295D01*
X84114285Y-72072295D02*
X84038094Y-72034200D01*
X84038094Y-72034200D02*
X83999999Y-71996104D01*
X84761904Y-71538961D02*
X84952380Y-72072295D01*
X84952380Y-72072295D02*
X85142857Y-71538961D01*
X94616667Y-57786104D02*
X94578571Y-57824200D01*
X94578571Y-57824200D02*
X94464286Y-57862295D01*
X94464286Y-57862295D02*
X94388095Y-57862295D01*
X94388095Y-57862295D02*
X94273809Y-57824200D01*
X94273809Y-57824200D02*
X94197619Y-57748009D01*
X94197619Y-57748009D02*
X94159524Y-57671819D01*
X94159524Y-57671819D02*
X94121428Y-57519438D01*
X94121428Y-57519438D02*
X94121428Y-57405152D01*
X94121428Y-57405152D02*
X94159524Y-57252771D01*
X94159524Y-57252771D02*
X94197619Y-57176580D01*
X94197619Y-57176580D02*
X94273809Y-57100390D01*
X94273809Y-57100390D02*
X94388095Y-57062295D01*
X94388095Y-57062295D02*
X94464286Y-57062295D01*
X94464286Y-57062295D02*
X94578571Y-57100390D01*
X94578571Y-57100390D02*
X94616667Y-57138485D01*
X95378571Y-57862295D02*
X94921428Y-57862295D01*
X95150000Y-57862295D02*
X95150000Y-57062295D01*
X95150000Y-57062295D02*
X95073809Y-57176580D01*
X95073809Y-57176580D02*
X94997619Y-57252771D01*
X94997619Y-57252771D02*
X94921428Y-57290866D01*
X93237142Y-59362295D02*
X92779999Y-59362295D01*
X93008571Y-59362295D02*
X93008571Y-58562295D01*
X93008571Y-58562295D02*
X92932380Y-58676580D01*
X92932380Y-58676580D02*
X92856190Y-58752771D01*
X92856190Y-58752771D02*
X92779999Y-58790866D01*
X93732381Y-58562295D02*
X93808571Y-58562295D01*
X93808571Y-58562295D02*
X93884762Y-58600390D01*
X93884762Y-58600390D02*
X93922857Y-58638485D01*
X93922857Y-58638485D02*
X93960952Y-58714676D01*
X93960952Y-58714676D02*
X93999047Y-58867057D01*
X93999047Y-58867057D02*
X93999047Y-59057533D01*
X93999047Y-59057533D02*
X93960952Y-59209914D01*
X93960952Y-59209914D02*
X93922857Y-59286104D01*
X93922857Y-59286104D02*
X93884762Y-59324200D01*
X93884762Y-59324200D02*
X93808571Y-59362295D01*
X93808571Y-59362295D02*
X93732381Y-59362295D01*
X93732381Y-59362295D02*
X93656190Y-59324200D01*
X93656190Y-59324200D02*
X93618095Y-59286104D01*
X93618095Y-59286104D02*
X93580000Y-59209914D01*
X93580000Y-59209914D02*
X93541904Y-59057533D01*
X93541904Y-59057533D02*
X93541904Y-58867057D01*
X93541904Y-58867057D02*
X93580000Y-58714676D01*
X93580000Y-58714676D02*
X93618095Y-58638485D01*
X93618095Y-58638485D02*
X93656190Y-58600390D01*
X93656190Y-58600390D02*
X93732381Y-58562295D01*
X94684762Y-58828961D02*
X94684762Y-59362295D01*
X94341905Y-58828961D02*
X94341905Y-59248009D01*
X94341905Y-59248009D02*
X94380000Y-59324200D01*
X94380000Y-59324200D02*
X94456190Y-59362295D01*
X94456190Y-59362295D02*
X94570476Y-59362295D01*
X94570476Y-59362295D02*
X94646667Y-59324200D01*
X94646667Y-59324200D02*
X94684762Y-59286104D01*
X94951429Y-58828961D02*
X95256191Y-58828961D01*
X95065715Y-59362295D02*
X95065715Y-58676580D01*
X95065715Y-58676580D02*
X95103810Y-58600390D01*
X95103810Y-58600390D02*
X95180000Y-58562295D01*
X95180000Y-58562295D02*
X95256191Y-58562295D01*
X104342295Y-75787142D02*
X103542295Y-75787142D01*
X103542295Y-75787142D02*
X103542295Y-75596666D01*
X103542295Y-75596666D02*
X103580390Y-75482380D01*
X103580390Y-75482380D02*
X103656580Y-75406190D01*
X103656580Y-75406190D02*
X103732771Y-75368095D01*
X103732771Y-75368095D02*
X103885152Y-75329999D01*
X103885152Y-75329999D02*
X103999438Y-75329999D01*
X103999438Y-75329999D02*
X104151819Y-75368095D01*
X104151819Y-75368095D02*
X104228009Y-75406190D01*
X104228009Y-75406190D02*
X104304200Y-75482380D01*
X104304200Y-75482380D02*
X104342295Y-75596666D01*
X104342295Y-75596666D02*
X104342295Y-75787142D01*
X104342295Y-74987142D02*
X103542295Y-74987142D01*
X104342295Y-74606190D02*
X103542295Y-74606190D01*
X103542295Y-74606190D02*
X104113723Y-74339524D01*
X104113723Y-74339524D02*
X103542295Y-74072857D01*
X103542295Y-74072857D02*
X104342295Y-74072857D01*
X95687704Y-61787926D02*
X95040085Y-61787926D01*
X95040085Y-61787926D02*
X94963895Y-61826021D01*
X94963895Y-61826021D02*
X94925800Y-61864116D01*
X94925800Y-61864116D02*
X94887704Y-61940307D01*
X94887704Y-61940307D02*
X94887704Y-62092688D01*
X94887704Y-62092688D02*
X94925800Y-62168878D01*
X94925800Y-62168878D02*
X94963895Y-62206973D01*
X94963895Y-62206973D02*
X95040085Y-62245069D01*
X95040085Y-62245069D02*
X95687704Y-62245069D01*
X94887704Y-63045068D02*
X94887704Y-62587925D01*
X94887704Y-62816497D02*
X95687704Y-62816497D01*
X95687704Y-62816497D02*
X95573419Y-62740306D01*
X95573419Y-62740306D02*
X95497228Y-62664116D01*
X95497228Y-62664116D02*
X95459133Y-62587925D01*
D11*
X100293880Y-61500000D02*
X100055785Y-61500000D01*
X100151023Y-61261905D02*
X100055785Y-61500000D01*
X100055785Y-61500000D02*
X100151023Y-61738095D01*
X99865309Y-61357143D02*
X100055785Y-61500000D01*
X100055785Y-61500000D02*
X99865309Y-61642857D01*
D10*
X78435714Y-62507295D02*
X78435714Y-61707295D01*
X78816666Y-61973961D02*
X78816666Y-62507295D01*
X78816666Y-62050152D02*
X78854761Y-62012057D01*
X78854761Y-62012057D02*
X78930951Y-61973961D01*
X78930951Y-61973961D02*
X79045237Y-61973961D01*
X79045237Y-61973961D02*
X79121428Y-62012057D01*
X79121428Y-62012057D02*
X79159523Y-62088247D01*
X79159523Y-62088247D02*
X79159523Y-62507295D01*
X79540476Y-61973961D02*
X79540476Y-62773961D01*
X79540476Y-62012057D02*
X79616666Y-61973961D01*
X79616666Y-61973961D02*
X79769047Y-61973961D01*
X79769047Y-61973961D02*
X79845238Y-62012057D01*
X79845238Y-62012057D02*
X79883333Y-62050152D01*
X79883333Y-62050152D02*
X79921428Y-62126342D01*
X79921428Y-62126342D02*
X79921428Y-62354914D01*
X79921428Y-62354914D02*
X79883333Y-62431104D01*
X79883333Y-62431104D02*
X79845238Y-62469200D01*
X79845238Y-62469200D02*
X79769047Y-62507295D01*
X79769047Y-62507295D02*
X79616666Y-62507295D01*
X79616666Y-62507295D02*
X79540476Y-62469200D01*
X80607143Y-61973961D02*
X80607143Y-62507295D01*
X80264286Y-61973961D02*
X80264286Y-62393009D01*
X80264286Y-62393009D02*
X80302381Y-62469200D01*
X80302381Y-62469200D02*
X80378571Y-62507295D01*
X80378571Y-62507295D02*
X80492857Y-62507295D01*
X80492857Y-62507295D02*
X80569048Y-62469200D01*
X80569048Y-62469200D02*
X80607143Y-62431104D01*
X80873810Y-61973961D02*
X81178572Y-61973961D01*
X80988096Y-61707295D02*
X80988096Y-62393009D01*
X80988096Y-62393009D02*
X81026191Y-62469200D01*
X81026191Y-62469200D02*
X81102381Y-62507295D01*
X81102381Y-62507295D02*
X81178572Y-62507295D01*
X118370476Y-72752295D02*
X117989524Y-72752295D01*
X117989524Y-72752295D02*
X117989524Y-71952295D01*
X118637143Y-72333247D02*
X118903809Y-72333247D01*
X119018095Y-72752295D02*
X118637143Y-72752295D01*
X118637143Y-72752295D02*
X118637143Y-71952295D01*
X118637143Y-71952295D02*
X119018095Y-71952295D01*
X119360953Y-72752295D02*
X119360953Y-71952295D01*
X119360953Y-71952295D02*
X119551429Y-71952295D01*
X119551429Y-71952295D02*
X119665715Y-71990390D01*
X119665715Y-71990390D02*
X119741905Y-72066580D01*
X119741905Y-72066580D02*
X119780000Y-72142771D01*
X119780000Y-72142771D02*
X119818096Y-72295152D01*
X119818096Y-72295152D02*
X119818096Y-72409438D01*
X119818096Y-72409438D02*
X119780000Y-72561819D01*
X119780000Y-72561819D02*
X119741905Y-72638009D01*
X119741905Y-72638009D02*
X119665715Y-72714200D01*
X119665715Y-72714200D02*
X119551429Y-72752295D01*
X119551429Y-72752295D02*
X119360953Y-72752295D01*
X120160953Y-72447533D02*
X120770477Y-72447533D01*
X95116667Y-65767295D02*
X94850000Y-65386342D01*
X94659524Y-65767295D02*
X94659524Y-64967295D01*
X94659524Y-64967295D02*
X94964286Y-64967295D01*
X94964286Y-64967295D02*
X95040476Y-65005390D01*
X95040476Y-65005390D02*
X95078571Y-65043485D01*
X95078571Y-65043485D02*
X95116667Y-65119676D01*
X95116667Y-65119676D02*
X95116667Y-65233961D01*
X95116667Y-65233961D02*
X95078571Y-65310152D01*
X95078571Y-65310152D02*
X95040476Y-65348247D01*
X95040476Y-65348247D02*
X94964286Y-65386342D01*
X94964286Y-65386342D02*
X94659524Y-65386342D01*
X95878571Y-65767295D02*
X95421428Y-65767295D01*
X95650000Y-65767295D02*
X95650000Y-64967295D01*
X95650000Y-64967295D02*
X95573809Y-65081580D01*
X95573809Y-65081580D02*
X95497619Y-65157771D01*
X95497619Y-65157771D02*
X95421428Y-65195866D01*
X95154761Y-67037295D02*
X94697618Y-67037295D01*
X94926190Y-67037295D02*
X94926190Y-66237295D01*
X94926190Y-66237295D02*
X94849999Y-66351580D01*
X94849999Y-66351580D02*
X94773809Y-66427771D01*
X94773809Y-66427771D02*
X94697618Y-66465866D01*
X95497619Y-67037295D02*
X95497619Y-66237295D01*
X95573809Y-66732533D02*
X95802381Y-67037295D01*
X95802381Y-66503961D02*
X95497619Y-66808723D01*
X84480476Y-66237295D02*
X84480476Y-66884914D01*
X84480476Y-66884914D02*
X84518571Y-66961104D01*
X84518571Y-66961104D02*
X84556666Y-66999200D01*
X84556666Y-66999200D02*
X84632857Y-67037295D01*
X84632857Y-67037295D02*
X84785238Y-67037295D01*
X84785238Y-67037295D02*
X84861428Y-66999200D01*
X84861428Y-66999200D02*
X84899523Y-66961104D01*
X84899523Y-66961104D02*
X84937619Y-66884914D01*
X84937619Y-66884914D02*
X84937619Y-66237295D01*
X85280475Y-66313485D02*
X85318571Y-66275390D01*
X85318571Y-66275390D02*
X85394761Y-66237295D01*
X85394761Y-66237295D02*
X85585237Y-66237295D01*
X85585237Y-66237295D02*
X85661428Y-66275390D01*
X85661428Y-66275390D02*
X85699523Y-66313485D01*
X85699523Y-66313485D02*
X85737618Y-66389676D01*
X85737618Y-66389676D02*
X85737618Y-66465866D01*
X85737618Y-66465866D02*
X85699523Y-66580152D01*
X85699523Y-66580152D02*
X85242380Y-67037295D01*
X85242380Y-67037295D02*
X85737618Y-67037295D01*
X100786104Y-67383332D02*
X100824200Y-67421428D01*
X100824200Y-67421428D02*
X100862295Y-67535713D01*
X100862295Y-67535713D02*
X100862295Y-67611904D01*
X100862295Y-67611904D02*
X100824200Y-67726190D01*
X100824200Y-67726190D02*
X100748009Y-67802380D01*
X100748009Y-67802380D02*
X100671819Y-67840475D01*
X100671819Y-67840475D02*
X100519438Y-67878571D01*
X100519438Y-67878571D02*
X100405152Y-67878571D01*
X100405152Y-67878571D02*
X100252771Y-67840475D01*
X100252771Y-67840475D02*
X100176580Y-67802380D01*
X100176580Y-67802380D02*
X100100390Y-67726190D01*
X100100390Y-67726190D02*
X100062295Y-67611904D01*
X100062295Y-67611904D02*
X100062295Y-67535713D01*
X100062295Y-67535713D02*
X100100390Y-67421428D01*
X100100390Y-67421428D02*
X100138485Y-67383332D01*
X100062295Y-67116666D02*
X100062295Y-66621428D01*
X100062295Y-66621428D02*
X100367057Y-66888094D01*
X100367057Y-66888094D02*
X100367057Y-66773809D01*
X100367057Y-66773809D02*
X100405152Y-66697618D01*
X100405152Y-66697618D02*
X100443247Y-66659523D01*
X100443247Y-66659523D02*
X100519438Y-66621428D01*
X100519438Y-66621428D02*
X100709914Y-66621428D01*
X100709914Y-66621428D02*
X100786104Y-66659523D01*
X100786104Y-66659523D02*
X100824200Y-66697618D01*
X100824200Y-66697618D02*
X100862295Y-66773809D01*
X100862295Y-66773809D02*
X100862295Y-67002380D01*
X100862295Y-67002380D02*
X100824200Y-67078571D01*
X100824200Y-67078571D02*
X100786104Y-67116666D01*
X102112295Y-68607143D02*
X102112295Y-69064286D01*
X102112295Y-68835714D02*
X101312295Y-68835714D01*
X101312295Y-68835714D02*
X101426580Y-68911905D01*
X101426580Y-68911905D02*
X101502771Y-68988095D01*
X101502771Y-68988095D02*
X101540866Y-69064286D01*
X101312295Y-68111904D02*
X101312295Y-68035714D01*
X101312295Y-68035714D02*
X101350390Y-67959523D01*
X101350390Y-67959523D02*
X101388485Y-67921428D01*
X101388485Y-67921428D02*
X101464676Y-67883333D01*
X101464676Y-67883333D02*
X101617057Y-67845238D01*
X101617057Y-67845238D02*
X101807533Y-67845238D01*
X101807533Y-67845238D02*
X101959914Y-67883333D01*
X101959914Y-67883333D02*
X102036104Y-67921428D01*
X102036104Y-67921428D02*
X102074200Y-67959523D01*
X102074200Y-67959523D02*
X102112295Y-68035714D01*
X102112295Y-68035714D02*
X102112295Y-68111904D01*
X102112295Y-68111904D02*
X102074200Y-68188095D01*
X102074200Y-68188095D02*
X102036104Y-68226190D01*
X102036104Y-68226190D02*
X101959914Y-68264285D01*
X101959914Y-68264285D02*
X101807533Y-68302381D01*
X101807533Y-68302381D02*
X101617057Y-68302381D01*
X101617057Y-68302381D02*
X101464676Y-68264285D01*
X101464676Y-68264285D02*
X101388485Y-68226190D01*
X101388485Y-68226190D02*
X101350390Y-68188095D01*
X101350390Y-68188095D02*
X101312295Y-68111904D01*
X101578961Y-67502380D02*
X102112295Y-67502380D01*
X101655152Y-67502380D02*
X101617057Y-67464285D01*
X101617057Y-67464285D02*
X101578961Y-67388095D01*
X101578961Y-67388095D02*
X101578961Y-67273809D01*
X101578961Y-67273809D02*
X101617057Y-67197618D01*
X101617057Y-67197618D02*
X101693247Y-67159523D01*
X101693247Y-67159523D02*
X102112295Y-67159523D01*
X101693247Y-66511904D02*
X101693247Y-66778570D01*
X102112295Y-66778570D02*
X101312295Y-66778570D01*
X101312295Y-66778570D02*
X101312295Y-66397618D01*
X96386666Y-52432295D02*
X96005714Y-52432295D01*
X96005714Y-52432295D02*
X96005714Y-51632295D01*
X97072380Y-52432295D02*
X96615237Y-52432295D01*
X96843809Y-52432295D02*
X96843809Y-51632295D01*
X96843809Y-51632295D02*
X96767618Y-51746580D01*
X96767618Y-51746580D02*
X96691428Y-51822771D01*
X96691428Y-51822771D02*
X96615237Y-51860866D01*
X94685000Y-49358961D02*
X94685000Y-49892295D01*
X94494524Y-49054200D02*
X94304047Y-49625628D01*
X94304047Y-49625628D02*
X94799286Y-49625628D01*
X95104048Y-49816104D02*
X95142143Y-49854200D01*
X95142143Y-49854200D02*
X95104048Y-49892295D01*
X95104048Y-49892295D02*
X95065952Y-49854200D01*
X95065952Y-49854200D02*
X95104048Y-49816104D01*
X95104048Y-49816104D02*
X95104048Y-49892295D01*
X95408809Y-49092295D02*
X95942143Y-49092295D01*
X95942143Y-49092295D02*
X95599285Y-49892295D01*
X96589762Y-49358961D02*
X96589762Y-49892295D01*
X96246905Y-49358961D02*
X96246905Y-49778009D01*
X96246905Y-49778009D02*
X96285000Y-49854200D01*
X96285000Y-49854200D02*
X96361190Y-49892295D01*
X96361190Y-49892295D02*
X96475476Y-49892295D01*
X96475476Y-49892295D02*
X96551667Y-49854200D01*
X96551667Y-49854200D02*
X96589762Y-49816104D01*
X96970715Y-49892295D02*
X96970715Y-49092295D01*
X96970715Y-49473247D02*
X97427858Y-49473247D01*
X97427858Y-49892295D02*
X97427858Y-49092295D01*
X113055476Y-71990390D02*
X112979286Y-71952295D01*
X112979286Y-71952295D02*
X112865000Y-71952295D01*
X112865000Y-71952295D02*
X112750714Y-71990390D01*
X112750714Y-71990390D02*
X112674524Y-72066580D01*
X112674524Y-72066580D02*
X112636429Y-72142771D01*
X112636429Y-72142771D02*
X112598333Y-72295152D01*
X112598333Y-72295152D02*
X112598333Y-72409438D01*
X112598333Y-72409438D02*
X112636429Y-72561819D01*
X112636429Y-72561819D02*
X112674524Y-72638009D01*
X112674524Y-72638009D02*
X112750714Y-72714200D01*
X112750714Y-72714200D02*
X112865000Y-72752295D01*
X112865000Y-72752295D02*
X112941191Y-72752295D01*
X112941191Y-72752295D02*
X113055476Y-72714200D01*
X113055476Y-72714200D02*
X113093572Y-72676104D01*
X113093572Y-72676104D02*
X113093572Y-72409438D01*
X113093572Y-72409438D02*
X112941191Y-72409438D01*
X113436429Y-72752295D02*
X113436429Y-71952295D01*
X113436429Y-71952295D02*
X113893572Y-72752295D01*
X113893572Y-72752295D02*
X113893572Y-71952295D01*
X114274524Y-72752295D02*
X114274524Y-71952295D01*
X114274524Y-71952295D02*
X114465000Y-71952295D01*
X114465000Y-71952295D02*
X114579286Y-71990390D01*
X114579286Y-71990390D02*
X114655476Y-72066580D01*
X114655476Y-72066580D02*
X114693571Y-72142771D01*
X114693571Y-72142771D02*
X114731667Y-72295152D01*
X114731667Y-72295152D02*
X114731667Y-72409438D01*
X114731667Y-72409438D02*
X114693571Y-72561819D01*
X114693571Y-72561819D02*
X114655476Y-72638009D01*
X114655476Y-72638009D02*
X114579286Y-72714200D01*
X114579286Y-72714200D02*
X114465000Y-72752295D01*
X114465000Y-72752295D02*
X114274524Y-72752295D01*
X82683333Y-51692295D02*
X82950000Y-52492295D01*
X82950000Y-52492295D02*
X83216666Y-51692295D01*
X83940476Y-52416104D02*
X83902380Y-52454200D01*
X83902380Y-52454200D02*
X83788095Y-52492295D01*
X83788095Y-52492295D02*
X83711904Y-52492295D01*
X83711904Y-52492295D02*
X83597618Y-52454200D01*
X83597618Y-52454200D02*
X83521428Y-52378009D01*
X83521428Y-52378009D02*
X83483333Y-52301819D01*
X83483333Y-52301819D02*
X83445237Y-52149438D01*
X83445237Y-52149438D02*
X83445237Y-52035152D01*
X83445237Y-52035152D02*
X83483333Y-51882771D01*
X83483333Y-51882771D02*
X83521428Y-51806580D01*
X83521428Y-51806580D02*
X83597618Y-51730390D01*
X83597618Y-51730390D02*
X83711904Y-51692295D01*
X83711904Y-51692295D02*
X83788095Y-51692295D01*
X83788095Y-51692295D02*
X83902380Y-51730390D01*
X83902380Y-51730390D02*
X83940476Y-51768485D01*
X84740476Y-52416104D02*
X84702380Y-52454200D01*
X84702380Y-52454200D02*
X84588095Y-52492295D01*
X84588095Y-52492295D02*
X84511904Y-52492295D01*
X84511904Y-52492295D02*
X84397618Y-52454200D01*
X84397618Y-52454200D02*
X84321428Y-52378009D01*
X84321428Y-52378009D02*
X84283333Y-52301819D01*
X84283333Y-52301819D02*
X84245237Y-52149438D01*
X84245237Y-52149438D02*
X84245237Y-52035152D01*
X84245237Y-52035152D02*
X84283333Y-51882771D01*
X84283333Y-51882771D02*
X84321428Y-51806580D01*
X84321428Y-51806580D02*
X84397618Y-51730390D01*
X84397618Y-51730390D02*
X84511904Y-51692295D01*
X84511904Y-51692295D02*
X84588095Y-51692295D01*
X84588095Y-51692295D02*
X84702380Y-51730390D01*
X84702380Y-51730390D02*
X84740476Y-51768485D01*
X107727857Y-72752295D02*
X107727857Y-71952295D01*
X107727857Y-71952295D02*
X107918333Y-71952295D01*
X107918333Y-71952295D02*
X108032619Y-71990390D01*
X108032619Y-71990390D02*
X108108809Y-72066580D01*
X108108809Y-72066580D02*
X108146904Y-72142771D01*
X108146904Y-72142771D02*
X108185000Y-72295152D01*
X108185000Y-72295152D02*
X108185000Y-72409438D01*
X108185000Y-72409438D02*
X108146904Y-72561819D01*
X108146904Y-72561819D02*
X108108809Y-72638009D01*
X108108809Y-72638009D02*
X108032619Y-72714200D01*
X108032619Y-72714200D02*
X107918333Y-72752295D01*
X107918333Y-72752295D02*
X107727857Y-72752295D01*
X108527857Y-72752295D02*
X108527857Y-71952295D01*
X108908809Y-72752295D02*
X108908809Y-71952295D01*
X108908809Y-71952295D02*
X109175475Y-72523723D01*
X109175475Y-72523723D02*
X109442142Y-71952295D01*
X109442142Y-71952295D02*
X109442142Y-72752295D01*
X113786104Y-67443332D02*
X113824200Y-67481428D01*
X113824200Y-67481428D02*
X113862295Y-67595713D01*
X113862295Y-67595713D02*
X113862295Y-67671904D01*
X113862295Y-67671904D02*
X113824200Y-67786190D01*
X113824200Y-67786190D02*
X113748009Y-67862380D01*
X113748009Y-67862380D02*
X113671819Y-67900475D01*
X113671819Y-67900475D02*
X113519438Y-67938571D01*
X113519438Y-67938571D02*
X113405152Y-67938571D01*
X113405152Y-67938571D02*
X113252771Y-67900475D01*
X113252771Y-67900475D02*
X113176580Y-67862380D01*
X113176580Y-67862380D02*
X113100390Y-67786190D01*
X113100390Y-67786190D02*
X113062295Y-67671904D01*
X113062295Y-67671904D02*
X113062295Y-67595713D01*
X113062295Y-67595713D02*
X113100390Y-67481428D01*
X113100390Y-67481428D02*
X113138485Y-67443332D01*
X113328961Y-66757618D02*
X113862295Y-66757618D01*
X113024200Y-66948094D02*
X113595628Y-67138571D01*
X113595628Y-67138571D02*
X113595628Y-66643332D01*
X115112295Y-68687857D02*
X115112295Y-69145000D01*
X115112295Y-68916428D02*
X114312295Y-68916428D01*
X114312295Y-68916428D02*
X114426580Y-68992619D01*
X114426580Y-68992619D02*
X114502771Y-69068809D01*
X114502771Y-69068809D02*
X114540866Y-69145000D01*
X114312295Y-68192618D02*
X114312295Y-68116428D01*
X114312295Y-68116428D02*
X114350390Y-68040237D01*
X114350390Y-68040237D02*
X114388485Y-68002142D01*
X114388485Y-68002142D02*
X114464676Y-67964047D01*
X114464676Y-67964047D02*
X114617057Y-67925952D01*
X114617057Y-67925952D02*
X114807533Y-67925952D01*
X114807533Y-67925952D02*
X114959914Y-67964047D01*
X114959914Y-67964047D02*
X115036104Y-68002142D01*
X115036104Y-68002142D02*
X115074200Y-68040237D01*
X115074200Y-68040237D02*
X115112295Y-68116428D01*
X115112295Y-68116428D02*
X115112295Y-68192618D01*
X115112295Y-68192618D02*
X115074200Y-68268809D01*
X115074200Y-68268809D02*
X115036104Y-68306904D01*
X115036104Y-68306904D02*
X114959914Y-68344999D01*
X114959914Y-68344999D02*
X114807533Y-68383095D01*
X114807533Y-68383095D02*
X114617057Y-68383095D01*
X114617057Y-68383095D02*
X114464676Y-68344999D01*
X114464676Y-68344999D02*
X114388485Y-68306904D01*
X114388485Y-68306904D02*
X114350390Y-68268809D01*
X114350390Y-68268809D02*
X114312295Y-68192618D01*
X114578961Y-67240237D02*
X115112295Y-67240237D01*
X114578961Y-67583094D02*
X114998009Y-67583094D01*
X114998009Y-67583094D02*
X115074200Y-67544999D01*
X115074200Y-67544999D02*
X115112295Y-67468809D01*
X115112295Y-67468809D02*
X115112295Y-67354523D01*
X115112295Y-67354523D02*
X115074200Y-67278332D01*
X115074200Y-67278332D02*
X115036104Y-67240237D01*
X114578961Y-66973570D02*
X114578961Y-66668808D01*
X115112295Y-66859284D02*
X114426580Y-66859284D01*
X114426580Y-66859284D02*
X114350390Y-66821189D01*
X114350390Y-66821189D02*
X114312295Y-66744999D01*
X114312295Y-66744999D02*
X114312295Y-66668808D01*
X110141104Y-67443332D02*
X110179200Y-67481428D01*
X110179200Y-67481428D02*
X110217295Y-67595713D01*
X110217295Y-67595713D02*
X110217295Y-67671904D01*
X110217295Y-67671904D02*
X110179200Y-67786190D01*
X110179200Y-67786190D02*
X110103009Y-67862380D01*
X110103009Y-67862380D02*
X110026819Y-67900475D01*
X110026819Y-67900475D02*
X109874438Y-67938571D01*
X109874438Y-67938571D02*
X109760152Y-67938571D01*
X109760152Y-67938571D02*
X109607771Y-67900475D01*
X109607771Y-67900475D02*
X109531580Y-67862380D01*
X109531580Y-67862380D02*
X109455390Y-67786190D01*
X109455390Y-67786190D02*
X109417295Y-67671904D01*
X109417295Y-67671904D02*
X109417295Y-67595713D01*
X109417295Y-67595713D02*
X109455390Y-67481428D01*
X109455390Y-67481428D02*
X109493485Y-67443332D01*
X109417295Y-66719523D02*
X109417295Y-67100475D01*
X109417295Y-67100475D02*
X109798247Y-67138571D01*
X109798247Y-67138571D02*
X109760152Y-67100475D01*
X109760152Y-67100475D02*
X109722057Y-67024285D01*
X109722057Y-67024285D02*
X109722057Y-66833809D01*
X109722057Y-66833809D02*
X109760152Y-66757618D01*
X109760152Y-66757618D02*
X109798247Y-66719523D01*
X109798247Y-66719523D02*
X109874438Y-66681428D01*
X109874438Y-66681428D02*
X110064914Y-66681428D01*
X110064914Y-66681428D02*
X110141104Y-66719523D01*
X110141104Y-66719523D02*
X110179200Y-66757618D01*
X110179200Y-66757618D02*
X110217295Y-66833809D01*
X110217295Y-66833809D02*
X110217295Y-67024285D01*
X110217295Y-67024285D02*
X110179200Y-67100475D01*
X110179200Y-67100475D02*
X110141104Y-67138571D01*
X111362295Y-68687857D02*
X111362295Y-69145000D01*
X111362295Y-68916428D02*
X110562295Y-68916428D01*
X110562295Y-68916428D02*
X110676580Y-68992619D01*
X110676580Y-68992619D02*
X110752771Y-69068809D01*
X110752771Y-69068809D02*
X110790866Y-69145000D01*
X110562295Y-68192618D02*
X110562295Y-68116428D01*
X110562295Y-68116428D02*
X110600390Y-68040237D01*
X110600390Y-68040237D02*
X110638485Y-68002142D01*
X110638485Y-68002142D02*
X110714676Y-67964047D01*
X110714676Y-67964047D02*
X110867057Y-67925952D01*
X110867057Y-67925952D02*
X111057533Y-67925952D01*
X111057533Y-67925952D02*
X111209914Y-67964047D01*
X111209914Y-67964047D02*
X111286104Y-68002142D01*
X111286104Y-68002142D02*
X111324200Y-68040237D01*
X111324200Y-68040237D02*
X111362295Y-68116428D01*
X111362295Y-68116428D02*
X111362295Y-68192618D01*
X111362295Y-68192618D02*
X111324200Y-68268809D01*
X111324200Y-68268809D02*
X111286104Y-68306904D01*
X111286104Y-68306904D02*
X111209914Y-68344999D01*
X111209914Y-68344999D02*
X111057533Y-68383095D01*
X111057533Y-68383095D02*
X110867057Y-68383095D01*
X110867057Y-68383095D02*
X110714676Y-68344999D01*
X110714676Y-68344999D02*
X110638485Y-68306904D01*
X110638485Y-68306904D02*
X110600390Y-68268809D01*
X110600390Y-68268809D02*
X110562295Y-68192618D01*
X110828961Y-67240237D02*
X111362295Y-67240237D01*
X110828961Y-67583094D02*
X111248009Y-67583094D01*
X111248009Y-67583094D02*
X111324200Y-67544999D01*
X111324200Y-67544999D02*
X111362295Y-67468809D01*
X111362295Y-67468809D02*
X111362295Y-67354523D01*
X111362295Y-67354523D02*
X111324200Y-67278332D01*
X111324200Y-67278332D02*
X111286104Y-67240237D01*
X110828961Y-66973570D02*
X110828961Y-66668808D01*
X111362295Y-66859284D02*
X110676580Y-66859284D01*
X110676580Y-66859284D02*
X110600390Y-66821189D01*
X110600390Y-66821189D02*
X110562295Y-66744999D01*
X110562295Y-66744999D02*
X110562295Y-66668808D01*
X117760952Y-59432295D02*
X117913333Y-59432295D01*
X117913333Y-59432295D02*
X117989523Y-59470390D01*
X117989523Y-59470390D02*
X118065714Y-59546580D01*
X118065714Y-59546580D02*
X118103809Y-59698961D01*
X118103809Y-59698961D02*
X118103809Y-59965628D01*
X118103809Y-59965628D02*
X118065714Y-60118009D01*
X118065714Y-60118009D02*
X117989523Y-60194200D01*
X117989523Y-60194200D02*
X117913333Y-60232295D01*
X117913333Y-60232295D02*
X117760952Y-60232295D01*
X117760952Y-60232295D02*
X117684761Y-60194200D01*
X117684761Y-60194200D02*
X117608571Y-60118009D01*
X117608571Y-60118009D02*
X117570475Y-59965628D01*
X117570475Y-59965628D02*
X117570475Y-59698961D01*
X117570475Y-59698961D02*
X117608571Y-59546580D01*
X117608571Y-59546580D02*
X117684761Y-59470390D01*
X117684761Y-59470390D02*
X117760952Y-59432295D01*
X118789523Y-59698961D02*
X118789523Y-60232295D01*
X118446666Y-59698961D02*
X118446666Y-60118009D01*
X118446666Y-60118009D02*
X118484761Y-60194200D01*
X118484761Y-60194200D02*
X118560951Y-60232295D01*
X118560951Y-60232295D02*
X118675237Y-60232295D01*
X118675237Y-60232295D02*
X118751428Y-60194200D01*
X118751428Y-60194200D02*
X118789523Y-60156104D01*
X119056190Y-59698961D02*
X119360952Y-59698961D01*
X119170476Y-59432295D02*
X119170476Y-60118009D01*
X119170476Y-60118009D02*
X119208571Y-60194200D01*
X119208571Y-60194200D02*
X119284761Y-60232295D01*
X119284761Y-60232295D02*
X119360952Y-60232295D01*
X119627619Y-59698961D02*
X119627619Y-60498961D01*
X119627619Y-59737057D02*
X119703809Y-59698961D01*
X119703809Y-59698961D02*
X119856190Y-59698961D01*
X119856190Y-59698961D02*
X119932381Y-59737057D01*
X119932381Y-59737057D02*
X119970476Y-59775152D01*
X119970476Y-59775152D02*
X120008571Y-59851342D01*
X120008571Y-59851342D02*
X120008571Y-60079914D01*
X120008571Y-60079914D02*
X119970476Y-60156104D01*
X119970476Y-60156104D02*
X119932381Y-60194200D01*
X119932381Y-60194200D02*
X119856190Y-60232295D01*
X119856190Y-60232295D02*
X119703809Y-60232295D01*
X119703809Y-60232295D02*
X119627619Y-60194200D01*
X120694286Y-59698961D02*
X120694286Y-60232295D01*
X120351429Y-59698961D02*
X120351429Y-60118009D01*
X120351429Y-60118009D02*
X120389524Y-60194200D01*
X120389524Y-60194200D02*
X120465714Y-60232295D01*
X120465714Y-60232295D02*
X120580000Y-60232295D01*
X120580000Y-60232295D02*
X120656191Y-60194200D01*
X120656191Y-60194200D02*
X120694286Y-60156104D01*
X120960953Y-59698961D02*
X121265715Y-59698961D01*
X121075239Y-59432295D02*
X121075239Y-60118009D01*
X121075239Y-60118009D02*
X121113334Y-60194200D01*
X121113334Y-60194200D02*
X121189524Y-60232295D01*
X121189524Y-60232295D02*
X121265715Y-60232295D01*
X81140476Y-65850390D02*
X81064286Y-65812295D01*
X81064286Y-65812295D02*
X80950000Y-65812295D01*
X80950000Y-65812295D02*
X80835714Y-65850390D01*
X80835714Y-65850390D02*
X80759524Y-65926580D01*
X80759524Y-65926580D02*
X80721429Y-66002771D01*
X80721429Y-66002771D02*
X80683333Y-66155152D01*
X80683333Y-66155152D02*
X80683333Y-66269438D01*
X80683333Y-66269438D02*
X80721429Y-66421819D01*
X80721429Y-66421819D02*
X80759524Y-66498009D01*
X80759524Y-66498009D02*
X80835714Y-66574200D01*
X80835714Y-66574200D02*
X80950000Y-66612295D01*
X80950000Y-66612295D02*
X81026191Y-66612295D01*
X81026191Y-66612295D02*
X81140476Y-66574200D01*
X81140476Y-66574200D02*
X81178572Y-66536104D01*
X81178572Y-66536104D02*
X81178572Y-66269438D01*
X81178572Y-66269438D02*
X81026191Y-66269438D01*
X81521429Y-66612295D02*
X81521429Y-65812295D01*
X81521429Y-65812295D02*
X81978572Y-66612295D01*
X81978572Y-66612295D02*
X81978572Y-65812295D01*
X82359524Y-66612295D02*
X82359524Y-65812295D01*
X82359524Y-65812295D02*
X82550000Y-65812295D01*
X82550000Y-65812295D02*
X82664286Y-65850390D01*
X82664286Y-65850390D02*
X82740476Y-65926580D01*
X82740476Y-65926580D02*
X82778571Y-66002771D01*
X82778571Y-66002771D02*
X82816667Y-66155152D01*
X82816667Y-66155152D02*
X82816667Y-66269438D01*
X82816667Y-66269438D02*
X82778571Y-66421819D01*
X82778571Y-66421819D02*
X82740476Y-66498009D01*
X82740476Y-66498009D02*
X82664286Y-66574200D01*
X82664286Y-66574200D02*
X82550000Y-66612295D01*
X82550000Y-66612295D02*
X82359524Y-66612295D01*
X85366667Y-57536104D02*
X85328571Y-57574200D01*
X85328571Y-57574200D02*
X85214286Y-57612295D01*
X85214286Y-57612295D02*
X85138095Y-57612295D01*
X85138095Y-57612295D02*
X85023809Y-57574200D01*
X85023809Y-57574200D02*
X84947619Y-57498009D01*
X84947619Y-57498009D02*
X84909524Y-57421819D01*
X84909524Y-57421819D02*
X84871428Y-57269438D01*
X84871428Y-57269438D02*
X84871428Y-57155152D01*
X84871428Y-57155152D02*
X84909524Y-57002771D01*
X84909524Y-57002771D02*
X84947619Y-56926580D01*
X84947619Y-56926580D02*
X85023809Y-56850390D01*
X85023809Y-56850390D02*
X85138095Y-56812295D01*
X85138095Y-56812295D02*
X85214286Y-56812295D01*
X85214286Y-56812295D02*
X85328571Y-56850390D01*
X85328571Y-56850390D02*
X85366667Y-56888485D01*
X85671428Y-56888485D02*
X85709524Y-56850390D01*
X85709524Y-56850390D02*
X85785714Y-56812295D01*
X85785714Y-56812295D02*
X85976190Y-56812295D01*
X85976190Y-56812295D02*
X86052381Y-56850390D01*
X86052381Y-56850390D02*
X86090476Y-56888485D01*
X86090476Y-56888485D02*
X86128571Y-56964676D01*
X86128571Y-56964676D02*
X86128571Y-57040866D01*
X86128571Y-57040866D02*
X86090476Y-57155152D01*
X86090476Y-57155152D02*
X85633333Y-57612295D01*
X85633333Y-57612295D02*
X86128571Y-57612295D01*
X85138094Y-59112295D02*
X84680951Y-59112295D01*
X84909523Y-59112295D02*
X84909523Y-58312295D01*
X84909523Y-58312295D02*
X84833332Y-58426580D01*
X84833332Y-58426580D02*
X84757142Y-58502771D01*
X84757142Y-58502771D02*
X84680951Y-58540866D01*
X85823809Y-58578961D02*
X85823809Y-59112295D01*
X85480952Y-58578961D02*
X85480952Y-58998009D01*
X85480952Y-58998009D02*
X85519047Y-59074200D01*
X85519047Y-59074200D02*
X85595237Y-59112295D01*
X85595237Y-59112295D02*
X85709523Y-59112295D01*
X85709523Y-59112295D02*
X85785714Y-59074200D01*
X85785714Y-59074200D02*
X85823809Y-59036104D01*
X86090476Y-58578961D02*
X86395238Y-58578961D01*
X86204762Y-59112295D02*
X86204762Y-58426580D01*
X86204762Y-58426580D02*
X86242857Y-58350390D01*
X86242857Y-58350390D02*
X86319047Y-58312295D01*
X86319047Y-58312295D02*
X86395238Y-58312295D01*
X106862295Y-67133332D02*
X106481342Y-67399999D01*
X106862295Y-67590475D02*
X106062295Y-67590475D01*
X106062295Y-67590475D02*
X106062295Y-67285713D01*
X106062295Y-67285713D02*
X106100390Y-67209523D01*
X106100390Y-67209523D02*
X106138485Y-67171428D01*
X106138485Y-67171428D02*
X106214676Y-67133332D01*
X106214676Y-67133332D02*
X106328961Y-67133332D01*
X106328961Y-67133332D02*
X106405152Y-67171428D01*
X106405152Y-67171428D02*
X106443247Y-67209523D01*
X106443247Y-67209523D02*
X106481342Y-67285713D01*
X106481342Y-67285713D02*
X106481342Y-67590475D01*
X106138485Y-66828571D02*
X106100390Y-66790475D01*
X106100390Y-66790475D02*
X106062295Y-66714285D01*
X106062295Y-66714285D02*
X106062295Y-66523809D01*
X106062295Y-66523809D02*
X106100390Y-66447618D01*
X106100390Y-66447618D02*
X106138485Y-66409523D01*
X106138485Y-66409523D02*
X106214676Y-66371428D01*
X106214676Y-66371428D02*
X106290866Y-66371428D01*
X106290866Y-66371428D02*
X106405152Y-66409523D01*
X106405152Y-66409523D02*
X106862295Y-66866666D01*
X106862295Y-66866666D02*
X106862295Y-66371428D01*
X107312295Y-67859523D02*
X107312295Y-67783333D01*
X107312295Y-67783333D02*
X107350390Y-67707142D01*
X107350390Y-67707142D02*
X107388485Y-67669047D01*
X107388485Y-67669047D02*
X107464676Y-67630952D01*
X107464676Y-67630952D02*
X107617057Y-67592857D01*
X107617057Y-67592857D02*
X107807533Y-67592857D01*
X107807533Y-67592857D02*
X107959914Y-67630952D01*
X107959914Y-67630952D02*
X108036104Y-67669047D01*
X108036104Y-67669047D02*
X108074200Y-67707142D01*
X108074200Y-67707142D02*
X108112295Y-67783333D01*
X108112295Y-67783333D02*
X108112295Y-67859523D01*
X108112295Y-67859523D02*
X108074200Y-67935714D01*
X108074200Y-67935714D02*
X108036104Y-67973809D01*
X108036104Y-67973809D02*
X107959914Y-68011904D01*
X107959914Y-68011904D02*
X107807533Y-68050000D01*
X107807533Y-68050000D02*
X107617057Y-68050000D01*
X107617057Y-68050000D02*
X107464676Y-68011904D01*
X107464676Y-68011904D02*
X107388485Y-67973809D01*
X107388485Y-67973809D02*
X107350390Y-67935714D01*
X107350390Y-67935714D02*
X107312295Y-67859523D01*
X108036104Y-67249999D02*
X108074200Y-67211904D01*
X108074200Y-67211904D02*
X108112295Y-67249999D01*
X108112295Y-67249999D02*
X108074200Y-67288095D01*
X108074200Y-67288095D02*
X108036104Y-67249999D01*
X108036104Y-67249999D02*
X108112295Y-67249999D01*
X107388485Y-66907143D02*
X107350390Y-66869047D01*
X107350390Y-66869047D02*
X107312295Y-66792857D01*
X107312295Y-66792857D02*
X107312295Y-66602381D01*
X107312295Y-66602381D02*
X107350390Y-66526190D01*
X107350390Y-66526190D02*
X107388485Y-66488095D01*
X107388485Y-66488095D02*
X107464676Y-66450000D01*
X107464676Y-66450000D02*
X107540866Y-66450000D01*
X107540866Y-66450000D02*
X107655152Y-66488095D01*
X107655152Y-66488095D02*
X108112295Y-66945238D01*
X108112295Y-66945238D02*
X108112295Y-66450000D01*
X86890476Y-46480390D02*
X86814286Y-46442295D01*
X86814286Y-46442295D02*
X86700000Y-46442295D01*
X86700000Y-46442295D02*
X86585714Y-46480390D01*
X86585714Y-46480390D02*
X86509524Y-46556580D01*
X86509524Y-46556580D02*
X86471429Y-46632771D01*
X86471429Y-46632771D02*
X86433333Y-46785152D01*
X86433333Y-46785152D02*
X86433333Y-46899438D01*
X86433333Y-46899438D02*
X86471429Y-47051819D01*
X86471429Y-47051819D02*
X86509524Y-47128009D01*
X86509524Y-47128009D02*
X86585714Y-47204200D01*
X86585714Y-47204200D02*
X86700000Y-47242295D01*
X86700000Y-47242295D02*
X86776191Y-47242295D01*
X86776191Y-47242295D02*
X86890476Y-47204200D01*
X86890476Y-47204200D02*
X86928572Y-47166104D01*
X86928572Y-47166104D02*
X86928572Y-46899438D01*
X86928572Y-46899438D02*
X86776191Y-46899438D01*
X87271429Y-47242295D02*
X87271429Y-46442295D01*
X87271429Y-46442295D02*
X87728572Y-47242295D01*
X87728572Y-47242295D02*
X87728572Y-46442295D01*
X88109524Y-47242295D02*
X88109524Y-46442295D01*
X88109524Y-46442295D02*
X88300000Y-46442295D01*
X88300000Y-46442295D02*
X88414286Y-46480390D01*
X88414286Y-46480390D02*
X88490476Y-46556580D01*
X88490476Y-46556580D02*
X88528571Y-46632771D01*
X88528571Y-46632771D02*
X88566667Y-46785152D01*
X88566667Y-46785152D02*
X88566667Y-46899438D01*
X88566667Y-46899438D02*
X88528571Y-47051819D01*
X88528571Y-47051819D02*
X88490476Y-47128009D01*
X88490476Y-47128009D02*
X88414286Y-47204200D01*
X88414286Y-47204200D02*
X88300000Y-47242295D01*
X88300000Y-47242295D02*
X88109524Y-47242295D01*
X94314285Y-47204200D02*
X94428571Y-47242295D01*
X94428571Y-47242295D02*
X94619047Y-47242295D01*
X94619047Y-47242295D02*
X94695238Y-47204200D01*
X94695238Y-47204200D02*
X94733333Y-47166104D01*
X94733333Y-47166104D02*
X94771428Y-47089914D01*
X94771428Y-47089914D02*
X94771428Y-47013723D01*
X94771428Y-47013723D02*
X94733333Y-46937533D01*
X94733333Y-46937533D02*
X94695238Y-46899438D01*
X94695238Y-46899438D02*
X94619047Y-46861342D01*
X94619047Y-46861342D02*
X94466666Y-46823247D01*
X94466666Y-46823247D02*
X94390476Y-46785152D01*
X94390476Y-46785152D02*
X94352381Y-46747057D01*
X94352381Y-46747057D02*
X94314285Y-46670866D01*
X94314285Y-46670866D02*
X94314285Y-46594676D01*
X94314285Y-46594676D02*
X94352381Y-46518485D01*
X94352381Y-46518485D02*
X94390476Y-46480390D01*
X94390476Y-46480390D02*
X94466666Y-46442295D01*
X94466666Y-46442295D02*
X94657143Y-46442295D01*
X94657143Y-46442295D02*
X94771428Y-46480390D01*
X95038095Y-46442295D02*
X95228571Y-47242295D01*
X95228571Y-47242295D02*
X95380952Y-46670866D01*
X95380952Y-46670866D02*
X95533333Y-47242295D01*
X95533333Y-47242295D02*
X95723810Y-46442295D01*
X87616667Y-72752295D02*
X87350000Y-72371342D01*
X87159524Y-72752295D02*
X87159524Y-71952295D01*
X87159524Y-71952295D02*
X87464286Y-71952295D01*
X87464286Y-71952295D02*
X87540476Y-71990390D01*
X87540476Y-71990390D02*
X87578571Y-72028485D01*
X87578571Y-72028485D02*
X87616667Y-72104676D01*
X87616667Y-72104676D02*
X87616667Y-72218961D01*
X87616667Y-72218961D02*
X87578571Y-72295152D01*
X87578571Y-72295152D02*
X87540476Y-72333247D01*
X87540476Y-72333247D02*
X87464286Y-72371342D01*
X87464286Y-72371342D02*
X87159524Y-72371342D01*
X88302381Y-72218961D02*
X88302381Y-72752295D01*
X88111905Y-71914200D02*
X87921428Y-72485628D01*
X87921428Y-72485628D02*
X88416667Y-72485628D01*
X91990475Y-71888485D02*
X92028571Y-71850390D01*
X92028571Y-71850390D02*
X92104761Y-71812295D01*
X92104761Y-71812295D02*
X92295237Y-71812295D01*
X92295237Y-71812295D02*
X92371428Y-71850390D01*
X92371428Y-71850390D02*
X92409523Y-71888485D01*
X92409523Y-71888485D02*
X92447618Y-71964676D01*
X92447618Y-71964676D02*
X92447618Y-72040866D01*
X92447618Y-72040866D02*
X92409523Y-72155152D01*
X92409523Y-72155152D02*
X91952380Y-72612295D01*
X91952380Y-72612295D02*
X92447618Y-72612295D01*
X92942857Y-71812295D02*
X93019047Y-71812295D01*
X93019047Y-71812295D02*
X93095238Y-71850390D01*
X93095238Y-71850390D02*
X93133333Y-71888485D01*
X93133333Y-71888485D02*
X93171428Y-71964676D01*
X93171428Y-71964676D02*
X93209523Y-72117057D01*
X93209523Y-72117057D02*
X93209523Y-72307533D01*
X93209523Y-72307533D02*
X93171428Y-72459914D01*
X93171428Y-72459914D02*
X93133333Y-72536104D01*
X93133333Y-72536104D02*
X93095238Y-72574200D01*
X93095238Y-72574200D02*
X93019047Y-72612295D01*
X93019047Y-72612295D02*
X92942857Y-72612295D01*
X92942857Y-72612295D02*
X92866666Y-72574200D01*
X92866666Y-72574200D02*
X92828571Y-72536104D01*
X92828571Y-72536104D02*
X92790476Y-72459914D01*
X92790476Y-72459914D02*
X92752380Y-72307533D01*
X92752380Y-72307533D02*
X92752380Y-72117057D01*
X92752380Y-72117057D02*
X92790476Y-71964676D01*
X92790476Y-71964676D02*
X92828571Y-71888485D01*
X92828571Y-71888485D02*
X92866666Y-71850390D01*
X92866666Y-71850390D02*
X92942857Y-71812295D01*
X93552381Y-72612295D02*
X93552381Y-71812295D01*
X94009524Y-72612295D02*
X93666666Y-72155152D01*
X94009524Y-71812295D02*
X93552381Y-72269438D01*
X95599285Y-71538247D02*
X95332619Y-71538247D01*
X95332619Y-71957295D02*
X95332619Y-71157295D01*
X95332619Y-71157295D02*
X95713571Y-71157295D01*
X96284999Y-71538247D02*
X96399285Y-71576342D01*
X96399285Y-71576342D02*
X96437380Y-71614438D01*
X96437380Y-71614438D02*
X96475476Y-71690628D01*
X96475476Y-71690628D02*
X96475476Y-71804914D01*
X96475476Y-71804914D02*
X96437380Y-71881104D01*
X96437380Y-71881104D02*
X96399285Y-71919200D01*
X96399285Y-71919200D02*
X96323095Y-71957295D01*
X96323095Y-71957295D02*
X96018333Y-71957295D01*
X96018333Y-71957295D02*
X96018333Y-71157295D01*
X96018333Y-71157295D02*
X96284999Y-71157295D01*
X96284999Y-71157295D02*
X96361190Y-71195390D01*
X96361190Y-71195390D02*
X96399285Y-71233485D01*
X96399285Y-71233485D02*
X96437380Y-71309676D01*
X96437380Y-71309676D02*
X96437380Y-71385866D01*
X96437380Y-71385866D02*
X96399285Y-71462057D01*
X96399285Y-71462057D02*
X96361190Y-71500152D01*
X96361190Y-71500152D02*
X96284999Y-71538247D01*
X96284999Y-71538247D02*
X96018333Y-71538247D01*
X85616667Y-68786104D02*
X85578571Y-68824200D01*
X85578571Y-68824200D02*
X85464286Y-68862295D01*
X85464286Y-68862295D02*
X85388095Y-68862295D01*
X85388095Y-68862295D02*
X85273809Y-68824200D01*
X85273809Y-68824200D02*
X85197619Y-68748009D01*
X85197619Y-68748009D02*
X85159524Y-68671819D01*
X85159524Y-68671819D02*
X85121428Y-68519438D01*
X85121428Y-68519438D02*
X85121428Y-68405152D01*
X85121428Y-68405152D02*
X85159524Y-68252771D01*
X85159524Y-68252771D02*
X85197619Y-68176580D01*
X85197619Y-68176580D02*
X85273809Y-68100390D01*
X85273809Y-68100390D02*
X85388095Y-68062295D01*
X85388095Y-68062295D02*
X85464286Y-68062295D01*
X85464286Y-68062295D02*
X85578571Y-68100390D01*
X85578571Y-68100390D02*
X85616667Y-68138485D01*
X86302381Y-68062295D02*
X86150000Y-68062295D01*
X86150000Y-68062295D02*
X86073809Y-68100390D01*
X86073809Y-68100390D02*
X86035714Y-68138485D01*
X86035714Y-68138485D02*
X85959524Y-68252771D01*
X85959524Y-68252771D02*
X85921428Y-68405152D01*
X85921428Y-68405152D02*
X85921428Y-68709914D01*
X85921428Y-68709914D02*
X85959524Y-68786104D01*
X85959524Y-68786104D02*
X85997619Y-68824200D01*
X85997619Y-68824200D02*
X86073809Y-68862295D01*
X86073809Y-68862295D02*
X86226190Y-68862295D01*
X86226190Y-68862295D02*
X86302381Y-68824200D01*
X86302381Y-68824200D02*
X86340476Y-68786104D01*
X86340476Y-68786104D02*
X86378571Y-68709914D01*
X86378571Y-68709914D02*
X86378571Y-68519438D01*
X86378571Y-68519438D02*
X86340476Y-68443247D01*
X86340476Y-68443247D02*
X86302381Y-68405152D01*
X86302381Y-68405152D02*
X86226190Y-68367057D01*
X86226190Y-68367057D02*
X86073809Y-68367057D01*
X86073809Y-68367057D02*
X85997619Y-68405152D01*
X85997619Y-68405152D02*
X85959524Y-68443247D01*
X85959524Y-68443247D02*
X85921428Y-68519438D01*
X85138094Y-70112295D02*
X84680951Y-70112295D01*
X84909523Y-70112295D02*
X84909523Y-69312295D01*
X84909523Y-69312295D02*
X84833332Y-69426580D01*
X84833332Y-69426580D02*
X84757142Y-69502771D01*
X84757142Y-69502771D02*
X84680951Y-69540866D01*
X85823809Y-69578961D02*
X85823809Y-70112295D01*
X85480952Y-69578961D02*
X85480952Y-69998009D01*
X85480952Y-69998009D02*
X85519047Y-70074200D01*
X85519047Y-70074200D02*
X85595237Y-70112295D01*
X85595237Y-70112295D02*
X85709523Y-70112295D01*
X85709523Y-70112295D02*
X85785714Y-70074200D01*
X85785714Y-70074200D02*
X85823809Y-70036104D01*
X86090476Y-69578961D02*
X86395238Y-69578961D01*
X86204762Y-70112295D02*
X86204762Y-69426580D01*
X86204762Y-69426580D02*
X86242857Y-69350390D01*
X86242857Y-69350390D02*
X86319047Y-69312295D01*
X86319047Y-69312295D02*
X86395238Y-69312295D01*
X78683333Y-51692295D02*
X78950000Y-52492295D01*
X78950000Y-52492295D02*
X79216666Y-51692295D01*
X79940476Y-52416104D02*
X79902380Y-52454200D01*
X79902380Y-52454200D02*
X79788095Y-52492295D01*
X79788095Y-52492295D02*
X79711904Y-52492295D01*
X79711904Y-52492295D02*
X79597618Y-52454200D01*
X79597618Y-52454200D02*
X79521428Y-52378009D01*
X79521428Y-52378009D02*
X79483333Y-52301819D01*
X79483333Y-52301819D02*
X79445237Y-52149438D01*
X79445237Y-52149438D02*
X79445237Y-52035152D01*
X79445237Y-52035152D02*
X79483333Y-51882771D01*
X79483333Y-51882771D02*
X79521428Y-51806580D01*
X79521428Y-51806580D02*
X79597618Y-51730390D01*
X79597618Y-51730390D02*
X79711904Y-51692295D01*
X79711904Y-51692295D02*
X79788095Y-51692295D01*
X79788095Y-51692295D02*
X79902380Y-51730390D01*
X79902380Y-51730390D02*
X79940476Y-51768485D01*
X80740476Y-52416104D02*
X80702380Y-52454200D01*
X80702380Y-52454200D02*
X80588095Y-52492295D01*
X80588095Y-52492295D02*
X80511904Y-52492295D01*
X80511904Y-52492295D02*
X80397618Y-52454200D01*
X80397618Y-52454200D02*
X80321428Y-52378009D01*
X80321428Y-52378009D02*
X80283333Y-52301819D01*
X80283333Y-52301819D02*
X80245237Y-52149438D01*
X80245237Y-52149438D02*
X80245237Y-52035152D01*
X80245237Y-52035152D02*
X80283333Y-51882771D01*
X80283333Y-51882771D02*
X80321428Y-51806580D01*
X80321428Y-51806580D02*
X80397618Y-51730390D01*
X80397618Y-51730390D02*
X80511904Y-51692295D01*
X80511904Y-51692295D02*
X80588095Y-51692295D01*
X80588095Y-51692295D02*
X80702380Y-51730390D01*
X80702380Y-51730390D02*
X80740476Y-51768485D01*
X103862295Y-67133332D02*
X103481342Y-67399999D01*
X103862295Y-67590475D02*
X103062295Y-67590475D01*
X103062295Y-67590475D02*
X103062295Y-67285713D01*
X103062295Y-67285713D02*
X103100390Y-67209523D01*
X103100390Y-67209523D02*
X103138485Y-67171428D01*
X103138485Y-67171428D02*
X103214676Y-67133332D01*
X103214676Y-67133332D02*
X103328961Y-67133332D01*
X103328961Y-67133332D02*
X103405152Y-67171428D01*
X103405152Y-67171428D02*
X103443247Y-67209523D01*
X103443247Y-67209523D02*
X103481342Y-67285713D01*
X103481342Y-67285713D02*
X103481342Y-67590475D01*
X103062295Y-66866666D02*
X103062295Y-66371428D01*
X103062295Y-66371428D02*
X103367057Y-66638094D01*
X103367057Y-66638094D02*
X103367057Y-66523809D01*
X103367057Y-66523809D02*
X103405152Y-66447618D01*
X103405152Y-66447618D02*
X103443247Y-66409523D01*
X103443247Y-66409523D02*
X103519438Y-66371428D01*
X103519438Y-66371428D02*
X103709914Y-66371428D01*
X103709914Y-66371428D02*
X103786104Y-66409523D01*
X103786104Y-66409523D02*
X103824200Y-66447618D01*
X103824200Y-66447618D02*
X103862295Y-66523809D01*
X103862295Y-66523809D02*
X103862295Y-66752380D01*
X103862295Y-66752380D02*
X103824200Y-66828571D01*
X103824200Y-66828571D02*
X103786104Y-66866666D01*
X104312295Y-67859523D02*
X104312295Y-67783333D01*
X104312295Y-67783333D02*
X104350390Y-67707142D01*
X104350390Y-67707142D02*
X104388485Y-67669047D01*
X104388485Y-67669047D02*
X104464676Y-67630952D01*
X104464676Y-67630952D02*
X104617057Y-67592857D01*
X104617057Y-67592857D02*
X104807533Y-67592857D01*
X104807533Y-67592857D02*
X104959914Y-67630952D01*
X104959914Y-67630952D02*
X105036104Y-67669047D01*
X105036104Y-67669047D02*
X105074200Y-67707142D01*
X105074200Y-67707142D02*
X105112295Y-67783333D01*
X105112295Y-67783333D02*
X105112295Y-67859523D01*
X105112295Y-67859523D02*
X105074200Y-67935714D01*
X105074200Y-67935714D02*
X105036104Y-67973809D01*
X105036104Y-67973809D02*
X104959914Y-68011904D01*
X104959914Y-68011904D02*
X104807533Y-68050000D01*
X104807533Y-68050000D02*
X104617057Y-68050000D01*
X104617057Y-68050000D02*
X104464676Y-68011904D01*
X104464676Y-68011904D02*
X104388485Y-67973809D01*
X104388485Y-67973809D02*
X104350390Y-67935714D01*
X104350390Y-67935714D02*
X104312295Y-67859523D01*
X105036104Y-67249999D02*
X105074200Y-67211904D01*
X105074200Y-67211904D02*
X105112295Y-67249999D01*
X105112295Y-67249999D02*
X105074200Y-67288095D01*
X105074200Y-67288095D02*
X105036104Y-67249999D01*
X105036104Y-67249999D02*
X105112295Y-67249999D01*
X104388485Y-66907143D02*
X104350390Y-66869047D01*
X104350390Y-66869047D02*
X104312295Y-66792857D01*
X104312295Y-66792857D02*
X104312295Y-66602381D01*
X104312295Y-66602381D02*
X104350390Y-66526190D01*
X104350390Y-66526190D02*
X104388485Y-66488095D01*
X104388485Y-66488095D02*
X104464676Y-66450000D01*
X104464676Y-66450000D02*
X104540866Y-66450000D01*
X104540866Y-66450000D02*
X104655152Y-66488095D01*
X104655152Y-66488095D02*
X105112295Y-66945238D01*
X105112295Y-66945238D02*
X105112295Y-66450000D01*
X81140476Y-69600390D02*
X81064286Y-69562295D01*
X81064286Y-69562295D02*
X80950000Y-69562295D01*
X80950000Y-69562295D02*
X80835714Y-69600390D01*
X80835714Y-69600390D02*
X80759524Y-69676580D01*
X80759524Y-69676580D02*
X80721429Y-69752771D01*
X80721429Y-69752771D02*
X80683333Y-69905152D01*
X80683333Y-69905152D02*
X80683333Y-70019438D01*
X80683333Y-70019438D02*
X80721429Y-70171819D01*
X80721429Y-70171819D02*
X80759524Y-70248009D01*
X80759524Y-70248009D02*
X80835714Y-70324200D01*
X80835714Y-70324200D02*
X80950000Y-70362295D01*
X80950000Y-70362295D02*
X81026191Y-70362295D01*
X81026191Y-70362295D02*
X81140476Y-70324200D01*
X81140476Y-70324200D02*
X81178572Y-70286104D01*
X81178572Y-70286104D02*
X81178572Y-70019438D01*
X81178572Y-70019438D02*
X81026191Y-70019438D01*
X81521429Y-70362295D02*
X81521429Y-69562295D01*
X81521429Y-69562295D02*
X81978572Y-70362295D01*
X81978572Y-70362295D02*
X81978572Y-69562295D01*
X82359524Y-70362295D02*
X82359524Y-69562295D01*
X82359524Y-69562295D02*
X82550000Y-69562295D01*
X82550000Y-69562295D02*
X82664286Y-69600390D01*
X82664286Y-69600390D02*
X82740476Y-69676580D01*
X82740476Y-69676580D02*
X82778571Y-69752771D01*
X82778571Y-69752771D02*
X82816667Y-69905152D01*
X82816667Y-69905152D02*
X82816667Y-70019438D01*
X82816667Y-70019438D02*
X82778571Y-70171819D01*
X82778571Y-70171819D02*
X82740476Y-70248009D01*
X82740476Y-70248009D02*
X82664286Y-70324200D01*
X82664286Y-70324200D02*
X82550000Y-70362295D01*
X82550000Y-70362295D02*
X82359524Y-70362295D01*
D12*
%TO.C,R5*%
X90397064Y-74195000D02*
X89942936Y-74195000D01*
X90397064Y-75665000D02*
X89942936Y-75665000D01*
%TO.C,J_LED+1*%
X118000000Y-46870000D02*
X119380000Y-46870000D01*
X118000000Y-48250000D02*
X118000000Y-46870000D01*
X118000000Y-49520000D02*
X118000000Y-49630000D01*
X118000000Y-49520000D02*
X120760000Y-49520000D01*
X118000000Y-49630000D02*
X120760000Y-49630000D01*
X120760000Y-49520000D02*
X120760000Y-49630000D01*
%TO.C,J_3.3V1*%
X82620000Y-72870000D02*
X84000000Y-72870000D01*
X82620000Y-74250000D02*
X82620000Y-72870000D01*
X82620000Y-75520000D02*
X82620000Y-75630000D01*
X82620000Y-75520000D02*
X85380000Y-75520000D01*
X82620000Y-75630000D02*
X85380000Y-75630000D01*
X85380000Y-75520000D02*
X85380000Y-75630000D01*
%TO.C,C1*%
X97288748Y-56890000D02*
X98711252Y-56890000D01*
X97288748Y-59610000D02*
X98711252Y-59610000D01*
%TO.C,J_LED_DIM1*%
X95140000Y-76310000D02*
X95140000Y-74930000D01*
X96520000Y-76310000D02*
X95140000Y-76310000D01*
X97790000Y-73550000D02*
X102980000Y-73550000D01*
X97790000Y-76310000D02*
X97790000Y-73550000D01*
X97790000Y-76310000D02*
X102980000Y-76310000D01*
X102980000Y-76310000D02*
X102980000Y-73550000D01*
D13*
%TO.C,U1*%
X96324401Y-61419550D02*
X96324401Y-63375350D01*
X99575601Y-63375350D02*
X99575601Y-61419550D01*
D12*
%TO.C,J1*%
X78370000Y-55845000D02*
X79750000Y-55845000D01*
X78370000Y-57225000D02*
X78370000Y-55845000D01*
X78370000Y-58495000D02*
X78370000Y-61145000D01*
X78370000Y-58495000D02*
X81130000Y-58495000D01*
X78370000Y-61145000D02*
X81130000Y-61145000D01*
X81130000Y-58495000D02*
X81130000Y-61145000D01*
%TO.C,J_LED-1*%
X118000000Y-73370000D02*
X119380000Y-73370000D01*
X118000000Y-74750000D02*
X118000000Y-73370000D01*
X118000000Y-76020000D02*
X118000000Y-76130000D01*
X118000000Y-76020000D02*
X120760000Y-76020000D01*
X118000000Y-76130000D02*
X120760000Y-76130000D01*
X120760000Y-76020000D02*
X120760000Y-76130000D01*
%TO.C,R1*%
X97562936Y-65305000D02*
X98017064Y-65305000D01*
X97562936Y-66775000D02*
X98017064Y-66775000D01*
%TO.C,U2*%
X86355000Y-60090000D02*
X86355000Y-61350000D01*
X86355000Y-66910000D02*
X86355000Y-65650000D01*
X90115000Y-60090000D02*
X86355000Y-60090000D01*
X90115000Y-66910000D02*
X86355000Y-66910000D01*
X91635000Y-67140000D02*
X91155000Y-67140000D01*
X91395000Y-66810000D01*
X91635000Y-67140000D01*
G36*
X91635000Y-67140000D02*
G01*
X91155000Y-67140000D01*
X91395000Y-66810000D01*
X91635000Y-67140000D01*
G37*
%TO.C,C3*%
X100265000Y-64276248D02*
X100265000Y-64798752D01*
X101735000Y-64276248D02*
X101735000Y-64798752D01*
%TO.C,L1*%
X97740000Y-43780000D02*
X97740000Y-46530000D01*
X97740000Y-52530000D02*
X97740000Y-55280000D01*
X98390000Y-43130000D02*
X109890000Y-43130000D01*
X109890000Y-55930000D02*
X98390000Y-55930000D01*
X110540000Y-43780000D02*
X110540000Y-46530000D01*
X110540000Y-52530000D02*
X110540000Y-55280000D01*
X97740000Y-43780000D02*
G75*
G02*
X98390000Y-43130000I650001J-1D01*
G01*
X98390000Y-55930000D02*
G75*
G02*
X97740000Y-55280000I1J650001D01*
G01*
X109890000Y-43130000D02*
G75*
G02*
X110540000Y-43780000I0J-650000D01*
G01*
X110540000Y-55280000D02*
G75*
G02*
X109890000Y-55930000I-650000J0D01*
G01*
%TO.C,J_GND3*%
X112870000Y-73370000D02*
X114250000Y-73370000D01*
X112870000Y-74750000D02*
X112870000Y-73370000D01*
X112870000Y-76020000D02*
X112870000Y-76130000D01*
X112870000Y-76020000D02*
X115630000Y-76020000D01*
X112870000Y-76130000D02*
X115630000Y-76130000D01*
X115630000Y-76020000D02*
X115630000Y-76130000D01*
%TO.C,J_VCC1*%
X82370000Y-48370000D02*
X83750000Y-48370000D01*
X82370000Y-49750000D02*
X82370000Y-48370000D01*
X82370000Y-51020000D02*
X82370000Y-51130000D01*
X82370000Y-51020000D02*
X85130000Y-51020000D01*
X82370000Y-51130000D02*
X85130000Y-51130000D01*
X85130000Y-51020000D02*
X85130000Y-51130000D01*
%TO.C,J_DIM1*%
X107205000Y-73550000D02*
X108585000Y-73550000D01*
X107205000Y-74930000D02*
X107205000Y-73550000D01*
X107205000Y-76200000D02*
X107205000Y-76310000D01*
X107205000Y-76200000D02*
X109965000Y-76200000D01*
X107205000Y-76310000D02*
X109965000Y-76310000D01*
X109965000Y-76200000D02*
X109965000Y-76310000D01*
%TO.C,C4*%
X113030000Y-63076248D02*
X113030000Y-64498752D01*
X115750000Y-63076248D02*
X115750000Y-64498752D01*
%TO.C,C5*%
X109280000Y-63076248D02*
X109280000Y-64498752D01*
X112000000Y-63076248D02*
X112000000Y-64498752D01*
%TO.C,J2*%
X118000000Y-63520000D02*
X118000000Y-60870000D01*
X120760000Y-60870000D02*
X118000000Y-60870000D01*
X120760000Y-63520000D02*
X118000000Y-63520000D01*
X120760000Y-63520000D02*
X120760000Y-60870000D01*
X120760000Y-64790000D02*
X120760000Y-66170000D01*
X120760000Y-66170000D02*
X119380000Y-66170000D01*
%TO.C,J_GND1*%
X78370000Y-64620000D02*
X79750000Y-64620000D01*
X78370000Y-66000000D02*
X78370000Y-64620000D01*
X78370000Y-67270000D02*
X78370000Y-67380000D01*
X78370000Y-67270000D02*
X81130000Y-67270000D01*
X78370000Y-67380000D02*
X81130000Y-67380000D01*
X81130000Y-67270000D02*
X81130000Y-67380000D01*
%TO.C,C2*%
X89611252Y-56425000D02*
X88188748Y-56425000D01*
X89611252Y-59145000D02*
X88188748Y-59145000D01*
%TO.C,R2*%
X106230000Y-64514564D02*
X106230000Y-63060436D01*
X108050000Y-64514564D02*
X108050000Y-63060436D01*
%TO.C,J_GND4*%
X86120000Y-43120000D02*
X87500000Y-43120000D01*
X86120000Y-44500000D02*
X86120000Y-43120000D01*
X86120000Y-45770000D02*
X86120000Y-45880000D01*
X86120000Y-45770000D02*
X88880000Y-45770000D01*
X86120000Y-45880000D02*
X88880000Y-45880000D01*
X88880000Y-45770000D02*
X88880000Y-45880000D01*
%TO.C,J_LED-2*%
X118000000Y-68020000D02*
X119380000Y-68020000D01*
X118000000Y-69400000D02*
X118000000Y-68020000D01*
X118000000Y-70670000D02*
X118000000Y-70780000D01*
X118000000Y-70670000D02*
X120760000Y-70670000D01*
X118000000Y-70780000D02*
X120760000Y-70780000D01*
X120760000Y-70670000D02*
X120760000Y-70780000D01*
%TO.C,J_SW1*%
X93620000Y-43120000D02*
X95000000Y-43120000D01*
X93620000Y-44500000D02*
X93620000Y-43120000D01*
X93620000Y-45770000D02*
X93620000Y-45880000D01*
X93620000Y-45770000D02*
X96380000Y-45770000D01*
X93620000Y-45880000D02*
X96380000Y-45880000D01*
X96380000Y-45770000D02*
X96380000Y-45880000D01*
%TO.C,R4*%
X89942936Y-71655000D02*
X90397064Y-71655000D01*
X89942936Y-73125000D02*
X90397064Y-73125000D01*
%TO.C,J_FB1*%
X94505000Y-67835000D02*
X95885000Y-67835000D01*
X94505000Y-69215000D02*
X94505000Y-67835000D01*
X94505000Y-70485000D02*
X94505000Y-70595000D01*
X94505000Y-70485000D02*
X97265000Y-70485000D01*
X94505000Y-70595000D02*
X97265000Y-70595000D01*
X97265000Y-70485000D02*
X97265000Y-70595000D01*
%TO.C,J+LED+2*%
X118000000Y-52595000D02*
X119380000Y-52595000D01*
X118000000Y-53975000D02*
X118000000Y-52595000D01*
X118000000Y-55245000D02*
X118000000Y-55355000D01*
X118000000Y-55245000D02*
X120760000Y-55245000D01*
X118000000Y-55355000D02*
X120760000Y-55355000D01*
X120760000Y-55245000D02*
X120760000Y-55355000D01*
%TO.C,C6*%
X89611252Y-67855000D02*
X88188748Y-67855000D01*
X89611252Y-70575000D02*
X88188748Y-70575000D01*
%TO.C,J_VCC2*%
X78370000Y-48370000D02*
X79750000Y-48370000D01*
X78370000Y-49750000D02*
X78370000Y-48370000D01*
X78370000Y-51020000D02*
X78370000Y-51130000D01*
X78370000Y-51020000D02*
X81130000Y-51020000D01*
X78370000Y-51130000D02*
X81130000Y-51130000D01*
X81130000Y-51020000D02*
X81130000Y-51130000D01*
%TO.C,R3*%
X103230000Y-64564564D02*
X103230000Y-63110436D01*
X105050000Y-64564564D02*
X105050000Y-63110436D01*
%TO.C,J_GND2*%
X78370000Y-68620000D02*
X79750000Y-68620000D01*
X78370000Y-70000000D02*
X78370000Y-68620000D01*
X78370000Y-71270000D02*
X78370000Y-71380000D01*
X78370000Y-71270000D02*
X81130000Y-71270000D01*
X78370000Y-71380000D02*
X81130000Y-71380000D01*
X81130000Y-71270000D02*
X81130000Y-71380000D01*
%TD*%
M02*
