%TF.GenerationSoftware,KiCad,Pcbnew,9.0.4*%
%TF.CreationDate,2026-01-20T15:52:17-08:00*%
%TF.ProjectId,FrontLight,46726f6e-744c-4696-9768-742e6b696361,rev?*%
%TF.SameCoordinates,Original*%
%TF.FileFunction,Copper,L2,Bot*%
%TF.FilePolarity,Positive*%
%FSLAX46Y46*%
G04 Gerber Fmt 4.6, Leading zero omitted, Abs format (unit mm)*
G04 Created by KiCad (PCBNEW 9.0.4) date 2026-01-20 15:52:17*
%MOMM*%
%LPD*%
G01*
G04 APERTURE LIST*
%TA.AperFunction,ComponentPad*%
%ADD10R,1.700000X1.700000*%
%TD*%
%TA.AperFunction,ComponentPad*%
%ADD11C,1.700000*%
%TD*%
%TA.AperFunction,ViaPad*%
%ADD12C,1.000000*%
%TD*%
%TA.AperFunction,Conductor*%
%ADD13C,0.500000*%
%TD*%
G04 APERTURE END LIST*
D10*
%TO.P,J_LED+1,1,Pin_1*%
%TO.N,LED+*%
X119380000Y-48250000D03*
%TD*%
%TO.P,J_3.3V1,1,Pin_1*%
%TO.N,+3.3V*%
X84000000Y-74250000D03*
%TD*%
%TO.P,J_LED_DIM1,1,Pin_1*%
%TO.N,+1V1*%
X96520000Y-74930000D03*
D11*
%TO.P,J_LED_DIM1,2,Pin_2*%
%TO.N,LED_DIM*%
X99060000Y-74930000D03*
%TO.P,J_LED_DIM1,3,Pin_3*%
%TO.N,+3.3V*%
X101600000Y-74930000D03*
%TD*%
D10*
%TO.P,J1,1,Pin_1*%
%TO.N,VCC*%
X79750000Y-57225000D03*
D11*
%TO.P,J1,2,Pin_2*%
%TO.N,GND*%
X79750000Y-59765000D03*
%TD*%
D10*
%TO.P,J_LED-1,1,Pin_1*%
%TO.N,LED-*%
X119380000Y-74750000D03*
%TD*%
%TO.P,J_GND3,1,Pin_1*%
%TO.N,GND*%
X114250000Y-74750000D03*
%TD*%
%TO.P,J_VCC1,1,Pin_1*%
%TO.N,VCC*%
X83750000Y-49750000D03*
%TD*%
%TO.P,J_DIM1,1,Pin_1*%
%TO.N,LED_DIM*%
X108585000Y-74930000D03*
%TD*%
%TO.P,J2,1,Pin_1*%
%TO.N,LED-*%
X119380000Y-64790000D03*
D11*
%TO.P,J2,2,Pin_2*%
%TO.N,LED+*%
X119380000Y-62250000D03*
%TD*%
D10*
%TO.P,J_GND1,1,Pin_1*%
%TO.N,GND*%
X79750000Y-66000000D03*
%TD*%
%TO.P,J_GND4,1,Pin_1*%
%TO.N,GND*%
X87500000Y-44500000D03*
%TD*%
%TO.P,J_LED-2,1,Pin_1*%
%TO.N,LED-*%
X119380000Y-69400000D03*
%TD*%
%TO.P,J_SW1,1,Pin_1*%
%TO.N,LED_SW*%
X95000000Y-44500000D03*
%TD*%
%TO.P,J_FB1,1,Pin_1*%
%TO.N,FB*%
X95885000Y-69215000D03*
%TD*%
%TO.P,J+LED+2,1,Pin_1*%
%TO.N,LED+*%
X119380000Y-53975000D03*
%TD*%
%TO.P,J_VCC2,1,Pin_1*%
%TO.N,VCC*%
X79750000Y-49750000D03*
%TD*%
%TO.P,J_GND2,1,Pin_1*%
%TO.N,GND*%
X79750000Y-70000000D03*
%TD*%
D12*
%TO.N,GND*%
X83000000Y-61000000D03*
X105000000Y-58000000D03*
X108000000Y-60500000D03*
X99500000Y-60500000D03*
X106500000Y-60500000D03*
X106500000Y-58000000D03*
X103500000Y-60500000D03*
X105000000Y-60500000D03*
X81500000Y-61000000D03*
X103500000Y-59250000D03*
X83000000Y-59765000D03*
X81500000Y-62250000D03*
X84500000Y-57000000D03*
X103500000Y-56750000D03*
X101750000Y-58000000D03*
X101750000Y-60515000D03*
X108000000Y-59250000D03*
X106500000Y-56750000D03*
X108000000Y-56750000D03*
X105000000Y-59250000D03*
X83000000Y-55500000D03*
X105000000Y-56750000D03*
X84500000Y-55500000D03*
X83000000Y-57000000D03*
X103500000Y-58000000D03*
X83000000Y-58500000D03*
X106500000Y-59250000D03*
X86750000Y-74500000D03*
X101750000Y-59250000D03*
X108000000Y-58000000D03*
X100750000Y-60500000D03*
X84500000Y-58500000D03*
X83000000Y-62250000D03*
X101750000Y-56750000D03*
%TD*%
D13*
%TO.N,GND*%
X105000000Y-59250000D02*
X103500000Y-59250000D01*
X101750000Y-60515000D02*
X101750000Y-59250000D01*
X87500000Y-56085000D02*
X84417500Y-59167500D01*
X108000000Y-58000000D02*
X106500000Y-58000000D01*
X105000000Y-58000000D02*
X103500000Y-58000000D01*
X108000000Y-59250000D02*
X106500000Y-59250000D01*
X83000000Y-59765000D02*
X79750000Y-59765000D01*
X106500000Y-60500000D02*
X106500000Y-59250000D01*
X83000000Y-57000000D02*
X83000000Y-55500000D01*
X105000000Y-56750000D02*
X103500000Y-56750000D01*
X105000000Y-60500000D02*
X106500000Y-60500000D01*
X84500000Y-59085000D02*
X84417500Y-59167500D01*
X81500000Y-61000000D02*
X83000000Y-61000000D01*
X103500000Y-59250000D02*
X103500000Y-58000000D01*
X84417500Y-59167500D02*
X83820000Y-59765000D01*
X83000000Y-59765000D02*
X83000000Y-58500000D01*
X114250000Y-66750000D02*
X108000000Y-60500000D01*
X108000000Y-58000000D02*
X108000000Y-59250000D01*
X86750000Y-74500000D02*
X82250000Y-70000000D01*
X99500000Y-60500000D02*
X100750000Y-60500000D01*
X83000000Y-62250000D02*
X81500000Y-62250000D01*
X106500000Y-58000000D02*
X106500000Y-56750000D01*
X108000000Y-60500000D02*
X108000000Y-59250000D01*
X103500000Y-58000000D02*
X103500000Y-56750000D01*
X108000000Y-58000000D02*
X108000000Y-56750000D01*
X103485000Y-60515000D02*
X103500000Y-60500000D01*
X101750000Y-59250000D02*
X101750000Y-58000000D01*
X101750000Y-60515000D02*
X100765000Y-60515000D01*
X87500000Y-44500000D02*
X87500000Y-56085000D01*
X82250000Y-70000000D02*
X79750000Y-70000000D01*
X84500000Y-58500000D02*
X84500000Y-59085000D01*
X101750000Y-60515000D02*
X103485000Y-60515000D01*
X106500000Y-59250000D02*
X106500000Y-58000000D01*
X83820000Y-59765000D02*
X83000000Y-59765000D01*
X101750000Y-56750000D02*
X103500000Y-56750000D01*
X100765000Y-60515000D02*
X100750000Y-60500000D01*
X84500000Y-55500000D02*
X84500000Y-57000000D01*
X105000000Y-56750000D02*
X106500000Y-56750000D01*
X114250000Y-74750000D02*
X114250000Y-66750000D01*
X108000000Y-56750000D02*
X106500000Y-56750000D01*
%TD*%
%TA.AperFunction,Conductor*%
%TO.N,GND*%
G36*
X121362539Y-42430185D02*
G01*
X121408294Y-42482989D01*
X121419500Y-42534500D01*
X121419500Y-77480500D01*
X121399815Y-77547539D01*
X121347011Y-77593294D01*
X121295500Y-77604500D01*
X77459500Y-77604500D01*
X77392461Y-77584815D01*
X77346706Y-77532011D01*
X77335500Y-77480500D01*
X77335500Y-73352135D01*
X82649500Y-73352135D01*
X82649500Y-75147870D01*
X82649501Y-75147876D01*
X82655908Y-75207483D01*
X82706202Y-75342328D01*
X82706206Y-75342335D01*
X82792452Y-75457544D01*
X82792455Y-75457547D01*
X82907664Y-75543793D01*
X82907671Y-75543797D01*
X83042517Y-75594091D01*
X83042516Y-75594091D01*
X83049444Y-75594835D01*
X83102127Y-75600500D01*
X84897872Y-75600499D01*
X84957483Y-75594091D01*
X85092331Y-75543796D01*
X85207546Y-75457546D01*
X85293796Y-75342331D01*
X85344091Y-75207483D01*
X85350500Y-75147873D01*
X85350499Y-74032135D01*
X95169500Y-74032135D01*
X95169500Y-75827870D01*
X95169501Y-75827876D01*
X95175908Y-75887483D01*
X95226202Y-76022328D01*
X95226206Y-76022335D01*
X95312452Y-76137544D01*
X95312455Y-76137547D01*
X95427664Y-76223793D01*
X95427671Y-76223797D01*
X95562517Y-76274091D01*
X95562516Y-76274091D01*
X95569444Y-76274835D01*
X95622127Y-76280500D01*
X97417872Y-76280499D01*
X97477483Y-76274091D01*
X97612331Y-76223796D01*
X97727546Y-76137546D01*
X97813796Y-76022331D01*
X97862810Y-75890916D01*
X97904681Y-75834984D01*
X97970145Y-75810566D01*
X98038418Y-75825417D01*
X98066673Y-75846569D01*
X98180213Y-75960109D01*
X98352179Y-76085048D01*
X98352181Y-76085049D01*
X98352184Y-76085051D01*
X98541588Y-76181557D01*
X98743757Y-76247246D01*
X98953713Y-76280500D01*
X98953714Y-76280500D01*
X99166286Y-76280500D01*
X99166287Y-76280500D01*
X99376243Y-76247246D01*
X99578412Y-76181557D01*
X99767816Y-76085051D01*
X99854138Y-76022335D01*
X99939786Y-75960109D01*
X99939788Y-75960106D01*
X99939792Y-75960104D01*
X100090104Y-75809792D01*
X100090106Y-75809788D01*
X100090109Y-75809786D01*
X100215048Y-75637820D01*
X100215047Y-75637820D01*
X100215051Y-75637816D01*
X100219514Y-75629054D01*
X100267488Y-75578259D01*
X100335308Y-75561463D01*
X100401444Y-75583999D01*
X100440486Y-75629056D01*
X100444951Y-75637820D01*
X100569890Y-75809786D01*
X100720213Y-75960109D01*
X100892179Y-76085048D01*
X100892181Y-76085049D01*
X100892184Y-76085051D01*
X101081588Y-76181557D01*
X101283757Y-76247246D01*
X101493713Y-76280500D01*
X101493714Y-76280500D01*
X101706286Y-76280500D01*
X101706287Y-76280500D01*
X101916243Y-76247246D01*
X102118412Y-76181557D01*
X102307816Y-76085051D01*
X102394138Y-76022335D01*
X102479786Y-75960109D01*
X102479788Y-75960106D01*
X102479792Y-75960104D01*
X102630104Y-75809792D01*
X102630106Y-75809788D01*
X102630109Y-75809786D01*
X102755048Y-75637820D01*
X102755047Y-75637820D01*
X102755051Y-75637816D01*
X102851557Y-75448412D01*
X102917246Y-75246243D01*
X102950500Y-75036287D01*
X102950500Y-74823713D01*
X102917246Y-74613757D01*
X102851557Y-74411588D01*
X102755051Y-74222184D01*
X102630104Y-74050208D01*
X102612031Y-74032135D01*
X107234500Y-74032135D01*
X107234500Y-75827870D01*
X107234501Y-75827876D01*
X107240908Y-75887483D01*
X107291202Y-76022328D01*
X107291206Y-76022335D01*
X107377452Y-76137544D01*
X107377455Y-76137547D01*
X107492664Y-76223793D01*
X107492671Y-76223797D01*
X107627517Y-76274091D01*
X107627516Y-76274091D01*
X107634444Y-76274835D01*
X107687127Y-76280500D01*
X109482872Y-76280499D01*
X109542483Y-76274091D01*
X109677331Y-76223796D01*
X109792546Y-76137546D01*
X109878796Y-76022331D01*
X109929091Y-75887483D01*
X109935500Y-75827873D01*
X109935499Y-74032128D01*
X109929091Y-73972517D01*
X109892791Y-73875193D01*
X109884192Y-73852135D01*
X118029500Y-73852135D01*
X118029500Y-75647870D01*
X118029501Y-75647876D01*
X118035908Y-75707483D01*
X118086202Y-75842328D01*
X118086206Y-75842335D01*
X118172452Y-75957544D01*
X118172455Y-75957547D01*
X118287664Y-76043793D01*
X118287671Y-76043797D01*
X118422517Y-76094091D01*
X118422516Y-76094091D01*
X118429444Y-76094835D01*
X118482127Y-76100500D01*
X120277872Y-76100499D01*
X120337483Y-76094091D01*
X120472331Y-76043796D01*
X120587546Y-75957546D01*
X120673796Y-75842331D01*
X120724091Y-75707483D01*
X120730500Y-75647873D01*
X120730499Y-73852128D01*
X120724091Y-73792517D01*
X120717539Y-73774951D01*
X120673797Y-73657671D01*
X120673793Y-73657664D01*
X120587547Y-73542455D01*
X120587544Y-73542452D01*
X120472335Y-73456206D01*
X120472328Y-73456202D01*
X120337482Y-73405908D01*
X120337483Y-73405908D01*
X120277883Y-73399501D01*
X120277881Y-73399500D01*
X120277873Y-73399500D01*
X120277864Y-73399500D01*
X118482129Y-73399500D01*
X118482123Y-73399501D01*
X118422516Y-73405908D01*
X118287671Y-73456202D01*
X118287664Y-73456206D01*
X118172455Y-73542452D01*
X118172452Y-73542455D01*
X118086206Y-73657664D01*
X118086202Y-73657671D01*
X118035908Y-73792517D01*
X118031055Y-73837664D01*
X118029501Y-73852123D01*
X118029500Y-73852135D01*
X109884192Y-73852135D01*
X109878798Y-73837673D01*
X109878793Y-73837664D01*
X109792547Y-73722455D01*
X109792544Y-73722452D01*
X109677335Y-73636206D01*
X109677328Y-73636202D01*
X109542482Y-73585908D01*
X109542483Y-73585908D01*
X109482883Y-73579501D01*
X109482881Y-73579500D01*
X109482873Y-73579500D01*
X109482864Y-73579500D01*
X107687129Y-73579500D01*
X107687123Y-73579501D01*
X107627516Y-73585908D01*
X107492671Y-73636202D01*
X107492664Y-73636206D01*
X107377455Y-73722452D01*
X107377452Y-73722455D01*
X107291206Y-73837664D01*
X107291202Y-73837671D01*
X107240908Y-73972517D01*
X107236510Y-74013431D01*
X107234501Y-74032123D01*
X107234500Y-74032135D01*
X102612031Y-74032135D01*
X102479792Y-73899896D01*
X102479786Y-73899890D01*
X102307820Y-73774951D01*
X102118414Y-73678444D01*
X102118413Y-73678443D01*
X102118412Y-73678443D01*
X101916243Y-73612754D01*
X101916241Y-73612753D01*
X101916240Y-73612753D01*
X101754957Y-73587208D01*
X101706287Y-73579500D01*
X101493713Y-73579500D01*
X101445042Y-73587208D01*
X101283760Y-73612753D01*
X101182672Y-73645598D01*
X101145524Y-73657669D01*
X101081585Y-73678444D01*
X100892179Y-73774951D01*
X100720213Y-73899890D01*
X100569890Y-74050213D01*
X100444949Y-74222182D01*
X100440484Y-74230946D01*
X100392509Y-74281742D01*
X100324688Y-74298536D01*
X100258553Y-74275998D01*
X100219516Y-74230946D01*
X100215050Y-74222182D01*
X100090109Y-74050213D01*
X99939786Y-73899890D01*
X99767820Y-73774951D01*
X99578414Y-73678444D01*
X99578413Y-73678443D01*
X99578412Y-73678443D01*
X99376243Y-73612754D01*
X99376241Y-73612753D01*
X99376240Y-73612753D01*
X99214957Y-73587208D01*
X99166287Y-73579500D01*
X98953713Y-73579500D01*
X98905042Y-73587208D01*
X98743760Y-73612753D01*
X98642672Y-73645598D01*
X98605524Y-73657669D01*
X98541585Y-73678444D01*
X98352179Y-73774951D01*
X98180215Y-73899889D01*
X98066673Y-74013431D01*
X98005350Y-74046915D01*
X97935658Y-74041931D01*
X97879725Y-74000059D01*
X97862810Y-73969082D01*
X97813797Y-73837671D01*
X97813793Y-73837664D01*
X97727547Y-73722455D01*
X97727544Y-73722452D01*
X97612335Y-73636206D01*
X97612328Y-73636202D01*
X97477482Y-73585908D01*
X97477483Y-73585908D01*
X97417883Y-73579501D01*
X97417881Y-73579500D01*
X97417873Y-73579500D01*
X97417864Y-73579500D01*
X95622129Y-73579500D01*
X95622123Y-73579501D01*
X95562516Y-73585908D01*
X95427671Y-73636202D01*
X95427664Y-73636206D01*
X95312455Y-73722452D01*
X95312452Y-73722455D01*
X95226206Y-73837664D01*
X95226202Y-73837671D01*
X95175908Y-73972517D01*
X95171510Y-74013431D01*
X95169501Y-74032123D01*
X95169500Y-74032135D01*
X85350499Y-74032135D01*
X85350499Y-73352128D01*
X85344091Y-73292517D01*
X85293796Y-73157669D01*
X85293795Y-73157668D01*
X85293793Y-73157664D01*
X85207547Y-73042455D01*
X85207544Y-73042452D01*
X85092335Y-72956206D01*
X85092328Y-72956202D01*
X84957482Y-72905908D01*
X84957483Y-72905908D01*
X84897883Y-72899501D01*
X84897881Y-72899500D01*
X84897873Y-72899500D01*
X84897864Y-72899500D01*
X83102129Y-72899500D01*
X83102123Y-72899501D01*
X83042516Y-72905908D01*
X82907671Y-72956202D01*
X82907664Y-72956206D01*
X82792455Y-73042452D01*
X82792452Y-73042455D01*
X82706206Y-73157664D01*
X82706202Y-73157671D01*
X82655908Y-73292517D01*
X82649501Y-73352116D01*
X82649501Y-73352123D01*
X82649500Y-73352135D01*
X77335500Y-73352135D01*
X77335500Y-68317135D01*
X94534500Y-68317135D01*
X94534500Y-70112870D01*
X94534501Y-70112876D01*
X94540908Y-70172483D01*
X94591202Y-70307328D01*
X94591206Y-70307335D01*
X94677452Y-70422544D01*
X94677455Y-70422547D01*
X94792664Y-70508793D01*
X94792671Y-70508797D01*
X94927517Y-70559091D01*
X94927516Y-70559091D01*
X94934444Y-70559835D01*
X94987127Y-70565500D01*
X96782872Y-70565499D01*
X96842483Y-70559091D01*
X96977331Y-70508796D01*
X97092546Y-70422546D01*
X97178796Y-70307331D01*
X97229091Y-70172483D01*
X97235500Y-70112873D01*
X97235499Y-68502135D01*
X118029500Y-68502135D01*
X118029500Y-70297870D01*
X118029501Y-70297876D01*
X118035908Y-70357483D01*
X118086202Y-70492328D01*
X118086206Y-70492335D01*
X118172452Y-70607544D01*
X118172455Y-70607547D01*
X118287664Y-70693793D01*
X118287671Y-70693797D01*
X118422517Y-70744091D01*
X118422516Y-70744091D01*
X118429444Y-70744835D01*
X118482127Y-70750500D01*
X120277872Y-70750499D01*
X120337483Y-70744091D01*
X120472331Y-70693796D01*
X120587546Y-70607546D01*
X120673796Y-70492331D01*
X120724091Y-70357483D01*
X120730500Y-70297873D01*
X120730499Y-68502128D01*
X120724091Y-68442517D01*
X120677324Y-68317129D01*
X120673797Y-68307671D01*
X120673793Y-68307664D01*
X120587547Y-68192455D01*
X120587544Y-68192452D01*
X120472335Y-68106206D01*
X120472328Y-68106202D01*
X120337482Y-68055908D01*
X120337483Y-68055908D01*
X120277883Y-68049501D01*
X120277881Y-68049500D01*
X120277873Y-68049500D01*
X120277864Y-68049500D01*
X118482129Y-68049500D01*
X118482123Y-68049501D01*
X118422516Y-68055908D01*
X118287671Y-68106202D01*
X118287664Y-68106206D01*
X118172455Y-68192452D01*
X118172452Y-68192455D01*
X118086206Y-68307664D01*
X118086202Y-68307671D01*
X118035908Y-68442517D01*
X118029501Y-68502116D01*
X118029501Y-68502123D01*
X118029500Y-68502135D01*
X97235499Y-68502135D01*
X97235499Y-68317128D01*
X97229091Y-68257517D01*
X97204824Y-68192455D01*
X97178797Y-68122671D01*
X97178793Y-68122664D01*
X97092547Y-68007455D01*
X97092544Y-68007452D01*
X96977335Y-67921206D01*
X96977328Y-67921202D01*
X96842482Y-67870908D01*
X96842483Y-67870908D01*
X96782883Y-67864501D01*
X96782881Y-67864500D01*
X96782873Y-67864500D01*
X96782864Y-67864500D01*
X94987129Y-67864500D01*
X94987123Y-67864501D01*
X94927516Y-67870908D01*
X94792671Y-67921202D01*
X94792664Y-67921206D01*
X94677455Y-68007452D01*
X94677452Y-68007455D01*
X94591206Y-68122664D01*
X94591202Y-68122671D01*
X94540908Y-68257517D01*
X94534501Y-68317116D01*
X94534501Y-68317123D01*
X94534500Y-68317135D01*
X77335500Y-68317135D01*
X77335500Y-62143713D01*
X118029500Y-62143713D01*
X118029500Y-62356286D01*
X118062753Y-62566239D01*
X118128444Y-62768414D01*
X118224951Y-62957820D01*
X118349890Y-63129786D01*
X118463430Y-63243326D01*
X118496915Y-63304649D01*
X118491931Y-63374341D01*
X118450059Y-63430274D01*
X118419083Y-63447189D01*
X118287669Y-63496203D01*
X118287664Y-63496206D01*
X118172455Y-63582452D01*
X118172452Y-63582455D01*
X118086206Y-63697664D01*
X118086202Y-63697671D01*
X118035908Y-63832517D01*
X118029501Y-63892116D01*
X118029501Y-63892123D01*
X118029500Y-63892135D01*
X118029500Y-65687870D01*
X118029501Y-65687876D01*
X118035908Y-65747483D01*
X118086202Y-65882328D01*
X118086206Y-65882335D01*
X118172452Y-65997544D01*
X118172455Y-65997547D01*
X118287664Y-66083793D01*
X118287671Y-66083797D01*
X118422517Y-66134091D01*
X118422516Y-66134091D01*
X118429444Y-66134835D01*
X118482127Y-66140500D01*
X120277872Y-66140499D01*
X120337483Y-66134091D01*
X120472331Y-66083796D01*
X120587546Y-65997546D01*
X120673796Y-65882331D01*
X120724091Y-65747483D01*
X120730500Y-65687873D01*
X120730499Y-63892128D01*
X120724091Y-63832517D01*
X120673796Y-63697669D01*
X120673795Y-63697668D01*
X120673793Y-63697664D01*
X120587547Y-63582455D01*
X120587544Y-63582452D01*
X120472335Y-63496206D01*
X120472328Y-63496202D01*
X120340917Y-63447189D01*
X120284983Y-63405318D01*
X120260566Y-63339853D01*
X120275418Y-63271580D01*
X120296563Y-63243332D01*
X120410104Y-63129792D01*
X120535051Y-62957816D01*
X120631557Y-62768412D01*
X120697246Y-62566243D01*
X120730500Y-62356287D01*
X120730500Y-62143713D01*
X120697246Y-61933757D01*
X120631557Y-61731588D01*
X120535051Y-61542184D01*
X120535049Y-61542181D01*
X120535048Y-61542179D01*
X120410109Y-61370213D01*
X120259786Y-61219890D01*
X120087820Y-61094951D01*
X119898414Y-60998444D01*
X119898413Y-60998443D01*
X119898412Y-60998443D01*
X119696243Y-60932754D01*
X119696241Y-60932753D01*
X119696240Y-60932753D01*
X119534957Y-60907208D01*
X119486287Y-60899500D01*
X119273713Y-60899500D01*
X119225042Y-60907208D01*
X119063760Y-60932753D01*
X118861585Y-60998444D01*
X118672179Y-61094951D01*
X118500213Y-61219890D01*
X118349890Y-61370213D01*
X118224951Y-61542179D01*
X118128444Y-61731585D01*
X118062753Y-61933760D01*
X118029500Y-62143713D01*
X77335500Y-62143713D01*
X77335500Y-56327135D01*
X78399500Y-56327135D01*
X78399500Y-58122870D01*
X78399501Y-58122876D01*
X78405908Y-58182483D01*
X78456202Y-58317328D01*
X78456206Y-58317335D01*
X78542452Y-58432544D01*
X78542455Y-58432547D01*
X78657664Y-58518793D01*
X78657671Y-58518797D01*
X78792517Y-58569091D01*
X78792516Y-58569091D01*
X78799444Y-58569835D01*
X78852127Y-58575500D01*
X80647872Y-58575499D01*
X80707483Y-58569091D01*
X80842331Y-58518796D01*
X80957546Y-58432546D01*
X81043796Y-58317331D01*
X81094091Y-58182483D01*
X81100500Y-58122873D01*
X81100499Y-56327128D01*
X81094091Y-56267517D01*
X81043796Y-56132669D01*
X81043795Y-56132668D01*
X81043793Y-56132664D01*
X80957547Y-56017455D01*
X80957544Y-56017452D01*
X80842335Y-55931206D01*
X80842328Y-55931202D01*
X80707482Y-55880908D01*
X80707483Y-55880908D01*
X80647883Y-55874501D01*
X80647881Y-55874500D01*
X80647873Y-55874500D01*
X80647864Y-55874500D01*
X78852129Y-55874500D01*
X78852123Y-55874501D01*
X78792516Y-55880908D01*
X78657671Y-55931202D01*
X78657664Y-55931206D01*
X78542455Y-56017452D01*
X78542452Y-56017455D01*
X78456206Y-56132664D01*
X78456202Y-56132671D01*
X78405908Y-56267517D01*
X78399501Y-56327116D01*
X78399501Y-56327123D01*
X78399500Y-56327135D01*
X77335500Y-56327135D01*
X77335500Y-53077135D01*
X118029500Y-53077135D01*
X118029500Y-54872870D01*
X118029501Y-54872876D01*
X118035908Y-54932483D01*
X118086202Y-55067328D01*
X118086206Y-55067335D01*
X118172452Y-55182544D01*
X118172455Y-55182547D01*
X118287664Y-55268793D01*
X118287671Y-55268797D01*
X118422517Y-55319091D01*
X118422516Y-55319091D01*
X118429444Y-55319835D01*
X118482127Y-55325500D01*
X120277872Y-55325499D01*
X120337483Y-55319091D01*
X120472331Y-55268796D01*
X120587546Y-55182546D01*
X120673796Y-55067331D01*
X120724091Y-54932483D01*
X120730500Y-54872873D01*
X120730499Y-53077128D01*
X120724091Y-53017517D01*
X120673796Y-52882669D01*
X120673795Y-52882668D01*
X120673793Y-52882664D01*
X120587547Y-52767455D01*
X120587544Y-52767452D01*
X120472335Y-52681206D01*
X120472328Y-52681202D01*
X120337482Y-52630908D01*
X120337483Y-52630908D01*
X120277883Y-52624501D01*
X120277881Y-52624500D01*
X120277873Y-52624500D01*
X120277864Y-52624500D01*
X118482129Y-52624500D01*
X118482123Y-52624501D01*
X118422516Y-52630908D01*
X118287671Y-52681202D01*
X118287664Y-52681206D01*
X118172455Y-52767452D01*
X118172452Y-52767455D01*
X118086206Y-52882664D01*
X118086202Y-52882671D01*
X118035908Y-53017517D01*
X118029501Y-53077116D01*
X118029501Y-53077123D01*
X118029500Y-53077135D01*
X77335500Y-53077135D01*
X77335500Y-48852135D01*
X78399500Y-48852135D01*
X78399500Y-50647870D01*
X78399501Y-50647876D01*
X78405908Y-50707483D01*
X78456202Y-50842328D01*
X78456206Y-50842335D01*
X78542452Y-50957544D01*
X78542455Y-50957547D01*
X78657664Y-51043793D01*
X78657671Y-51043797D01*
X78792517Y-51094091D01*
X78792516Y-51094091D01*
X78799444Y-51094835D01*
X78852127Y-51100500D01*
X80647872Y-51100499D01*
X80707483Y-51094091D01*
X80842331Y-51043796D01*
X80957546Y-50957546D01*
X81043796Y-50842331D01*
X81094091Y-50707483D01*
X81100500Y-50647873D01*
X81100499Y-48852135D01*
X82399500Y-48852135D01*
X82399500Y-50647870D01*
X82399501Y-50647876D01*
X82405908Y-50707483D01*
X82456202Y-50842328D01*
X82456206Y-50842335D01*
X82542452Y-50957544D01*
X82542455Y-50957547D01*
X82657664Y-51043793D01*
X82657671Y-51043797D01*
X82792517Y-51094091D01*
X82792516Y-51094091D01*
X82799444Y-51094835D01*
X82852127Y-51100500D01*
X84647872Y-51100499D01*
X84707483Y-51094091D01*
X84842331Y-51043796D01*
X84957546Y-50957546D01*
X85043796Y-50842331D01*
X85094091Y-50707483D01*
X85100500Y-50647873D01*
X85100499Y-48852128D01*
X85094091Y-48792517D01*
X85043796Y-48657669D01*
X85043795Y-48657668D01*
X85043793Y-48657664D01*
X84957547Y-48542455D01*
X84957544Y-48542452D01*
X84842335Y-48456206D01*
X84842328Y-48456202D01*
X84707482Y-48405908D01*
X84707483Y-48405908D01*
X84647883Y-48399501D01*
X84647881Y-48399500D01*
X84647873Y-48399500D01*
X84647864Y-48399500D01*
X82852129Y-48399500D01*
X82852123Y-48399501D01*
X82792516Y-48405908D01*
X82657671Y-48456202D01*
X82657664Y-48456206D01*
X82542455Y-48542452D01*
X82542452Y-48542455D01*
X82456206Y-48657664D01*
X82456202Y-48657671D01*
X82405908Y-48792517D01*
X82399501Y-48852116D01*
X82399501Y-48852123D01*
X82399500Y-48852135D01*
X81100499Y-48852135D01*
X81100499Y-48852128D01*
X81094091Y-48792517D01*
X81043796Y-48657669D01*
X81043795Y-48657668D01*
X81043793Y-48657664D01*
X80957547Y-48542455D01*
X80957544Y-48542452D01*
X80842335Y-48456206D01*
X80842328Y-48456202D01*
X80707482Y-48405908D01*
X80707483Y-48405908D01*
X80647883Y-48399501D01*
X80647881Y-48399500D01*
X80647873Y-48399500D01*
X80647864Y-48399500D01*
X78852129Y-48399500D01*
X78852123Y-48399501D01*
X78792516Y-48405908D01*
X78657671Y-48456202D01*
X78657664Y-48456206D01*
X78542455Y-48542452D01*
X78542452Y-48542455D01*
X78456206Y-48657664D01*
X78456202Y-48657671D01*
X78405908Y-48792517D01*
X78399501Y-48852116D01*
X78399501Y-48852123D01*
X78399500Y-48852135D01*
X77335500Y-48852135D01*
X77335500Y-47352135D01*
X118029500Y-47352135D01*
X118029500Y-49147870D01*
X118029501Y-49147876D01*
X118035908Y-49207483D01*
X118086202Y-49342328D01*
X118086206Y-49342335D01*
X118172452Y-49457544D01*
X118172455Y-49457547D01*
X118287664Y-49543793D01*
X118287671Y-49543797D01*
X118422517Y-49594091D01*
X118422516Y-49594091D01*
X118429444Y-49594835D01*
X118482127Y-49600500D01*
X120277872Y-49600499D01*
X120337483Y-49594091D01*
X120472331Y-49543796D01*
X120587546Y-49457546D01*
X120673796Y-49342331D01*
X120724091Y-49207483D01*
X120730500Y-49147873D01*
X120730499Y-47352128D01*
X120724091Y-47292517D01*
X120673796Y-47157669D01*
X120673795Y-47157668D01*
X120673793Y-47157664D01*
X120587547Y-47042455D01*
X120587544Y-47042452D01*
X120472335Y-46956206D01*
X120472328Y-46956202D01*
X120337482Y-46905908D01*
X120337483Y-46905908D01*
X120277883Y-46899501D01*
X120277881Y-46899500D01*
X120277873Y-46899500D01*
X120277864Y-46899500D01*
X118482129Y-46899500D01*
X118482123Y-46899501D01*
X118422516Y-46905908D01*
X118287671Y-46956202D01*
X118287664Y-46956206D01*
X118172455Y-47042452D01*
X118172452Y-47042455D01*
X118086206Y-47157664D01*
X118086202Y-47157671D01*
X118035908Y-47292517D01*
X118029501Y-47352116D01*
X118029501Y-47352123D01*
X118029500Y-47352135D01*
X77335500Y-47352135D01*
X77335500Y-43602135D01*
X93649500Y-43602135D01*
X93649500Y-45397870D01*
X93649501Y-45397876D01*
X93655908Y-45457483D01*
X93706202Y-45592328D01*
X93706206Y-45592335D01*
X93792452Y-45707544D01*
X93792455Y-45707547D01*
X93907664Y-45793793D01*
X93907671Y-45793797D01*
X94042517Y-45844091D01*
X94042516Y-45844091D01*
X94049444Y-45844835D01*
X94102127Y-45850500D01*
X95897872Y-45850499D01*
X95957483Y-45844091D01*
X96092331Y-45793796D01*
X96207546Y-45707546D01*
X96293796Y-45592331D01*
X96344091Y-45457483D01*
X96350500Y-45397873D01*
X96350499Y-43602128D01*
X96344091Y-43542517D01*
X96293796Y-43407669D01*
X96293795Y-43407668D01*
X96293793Y-43407664D01*
X96207547Y-43292455D01*
X96207544Y-43292452D01*
X96092335Y-43206206D01*
X96092328Y-43206202D01*
X95957482Y-43155908D01*
X95957483Y-43155908D01*
X95897883Y-43149501D01*
X95897881Y-43149500D01*
X95897873Y-43149500D01*
X95897864Y-43149500D01*
X94102129Y-43149500D01*
X94102123Y-43149501D01*
X94042516Y-43155908D01*
X93907671Y-43206202D01*
X93907664Y-43206206D01*
X93792455Y-43292452D01*
X93792452Y-43292455D01*
X93706206Y-43407664D01*
X93706202Y-43407671D01*
X93655908Y-43542517D01*
X93649501Y-43602116D01*
X93649501Y-43602123D01*
X93649500Y-43602135D01*
X77335500Y-43602135D01*
X77335500Y-42534500D01*
X77355185Y-42467461D01*
X77407989Y-42421706D01*
X77459500Y-42410500D01*
X121295500Y-42410500D01*
X121362539Y-42430185D01*
G37*
%TD.AperFunction*%
%TD*%
M02*
